<?xml version="1.0" encoding="utf-8"?>
<!-- Generator: Adobe Illustrator 18.1.0, SVG Export Plug-In . SVG Version: 6.00 Build 0)  -->
<svg version="1.1" id="Layer_1" xmlns="http://www.w3.org/2000/svg" xmlns:xlink="http://www.w3.org/1999/xlink" x="0px" y="0px"
	 viewBox="454.4 248.7 50 62.3" enable-background="new 454.4 248.7 50 62.3" xml:space="preserve">
<g>
	<path fill="#333333" d="M503.8,263.9c-0.9-0.5-23.5-14.7-23.5-14.7s-0.7-0.5-1.1-0.5c-0.4,0-1,0.5-1,0.5l-22.8,14.3
		c0,0-1,0.5-1,1.5v29.8c0,0-0.4,0.6,0.7,1.2c1.1,0.6,23.5,14.7,23.5,14.7s0.5,0.5,1.2,0c0.9-0.5,23.7-14.8,23.7-14.8
		s0.7-0.2,0.7-1.1c0-0.7,0-29.7,0-29.7S504.6,264.4,503.8,263.9z"/>
</g>
<g>
	<path fill="#ED4223" d="M494,276.6c-1,2.1-2.1,4.1-3.5,6c-1.9,2.6-3.7,5.1-6.1,7.4c-1.4,1.2-2.7,2.4-4.5,3c-2.1,0.7-3.6,0.4-5-1.5
		c-1-1.4-1.5-2.9-2-4.5c-0.9-3.1-1.7-6.2-2.6-9.4c-0.2-0.7-0.6-1.5-1-2.1c-0.2-0.4-0.5-0.7-0.7-1c-0.4-0.4-0.7-0.4-1.2-0.1
		c-0.6,0.4-1.2,0.7-2,1.2c-0.5-0.6-1-1.2-1.4-1.7v-0.1c2.1-1.9,4.2-3.7,6.5-5.5c0.7-0.6,1.6-1.1,2.6-1.2c1.5-0.1,2.6,0.4,3.4,1.6
		s1,2.6,1.2,4c0.5,2.9,0.9,5.7,1.7,8.6c0.2,0.7,0.5,1.4,0.9,2.1c0.5,0.7,1,0.9,1.7,0.2c0.2-0.2,0.5-0.5,0.7-0.7
		c1.4-1.7,2.6-3.5,3.2-5.6c0.2-0.6,0.2-1.4,0.2-2.1c0-1-0.6-1.6-1.6-1.6c-0.7,0-1.5,0.1-2.2,0.2c-0.1,0-0.2,0.1-0.4,0.1
		c1.5-5.5,5.4-8,10.1-7c1.7,0.4,2.6,1.6,3,3.4C495.3,272.3,494.8,274.5,494,276.6z"/>
	<path fill="#333333" d="M494,276.6c-1,2.1-2.1,4.1-3.5,6c-1.9,2.6-3.7,5.1-6.1,7.4c-1.4,1.2-2.7,2.4-4.5,3c-2.1,0.7-3.6,0.4-5-1.5
		c-1-1.4-1.5-2.9-2-4.5c-0.9-3.1-1.7-6.2-2.6-9.4c-0.2-0.7-0.6-1.5-1-2.1c-0.2-0.4-0.5-0.7-0.7-1c-0.4-0.4-0.7-0.4-1.2-0.1
		c-0.6,0.4-1.2,0.7-2,1.2c-0.5-0.6-1-1.2-1.4-1.7v-0.1c2.1-1.9,4.2-3.7,6.5-5.5c0.7-0.6,1.6-1.1,2.6-1.2c1.5-0.1,2.6,0.4,3.4,1.6
		s1,2.6,1.2,4c0.5,2.9,0.9,5.7,1.7,8.6c0.2,0.7,0.5,1.4,0.9,2.1c0.5,0.7,1,0.9,1.7,0.2c0.2-0.2,0.5-0.5,0.7-0.7
		c1.4-1.7,2.6-3.5,3.2-5.6c0.2-0.6,0.2-1.4,0.2-2.1c0-1-0.6-1.6-1.6-1.6c-0.7,0-1.5,0.1-2.2,0.2c-0.1,0-0.2,0.1-0.4,0.1
		c1.5-5.5,5.4-8,10.1-7c1.7,0.4,2.6,1.6,3,3.4C495.3,272.3,494.8,274.5,494,276.6z"/>
	<path fill="#FFFFFF" d="M494,276.6c-1,2.1-2.1,4.1-3.5,6c-1.9,2.6-3.7,5.1-6.1,7.4c-1.4,1.2-2.7,2.4-4.5,3c-2.1,0.7-3.6,0.4-5-1.5
		c-1-1.4-1.5-2.9-2-4.5c-0.9-3.1-1.7-6.2-2.6-9.4c-0.2-0.7-0.6-1.5-1-2.1c-0.2-0.4-0.5-0.7-0.7-1c-0.4-0.4-0.7-0.4-1.2-0.1
		c-0.6,0.4-1.2,0.7-2,1.2c-0.5-0.6-1-1.2-1.4-1.7v-0.1c2.1-1.9,4.2-3.7,6.5-5.5c0.7-0.6,1.6-1.1,2.6-1.2c1.5-0.1,2.6,0.4,3.4,1.6
		s1,2.6,1.2,4c0.5,2.9,0.9,5.7,1.7,8.6c0.2,0.7,0.5,1.4,0.9,2.1c0.5,0.7,1,0.9,1.7,0.2c0.2-0.2,0.5-0.5,0.7-0.7
		c1.4-1.7,2.6-3.5,3.2-5.6c0.2-0.6,0.2-1.4,0.2-2.1c0-1-0.6-1.6-1.6-1.6c-0.7,0-1.5,0.1-2.2,0.2c-0.1,0-0.2,0.1-0.4,0.1
		c1.5-5.5,5.4-8,10.1-7c1.7,0.4,2.6,1.6,3,3.4C495.3,272.3,494.8,274.5,494,276.6z"/>
</g>
</svg>
