<?xml version="1.0" encoding="utf-8"?>
<!-- Generator: Adobe Illustrator 18.1.0, SVG Export Plug-In . SVG Version: 6.00 Build 0)  -->
<svg version="1.1" id="Layer_1" xmlns="http://www.w3.org/2000/svg" xmlns:xlink="http://www.w3.org/1999/xlink" x="0px" y="0px"
	 viewBox="0 0 40.1 50" enable-background="new 0 0 40.1 50" xml:space="preserve">
<g>
	<path fill="#333333" d="M39.6,12.2C38.9,11.8,20.8,0.4,20.8,0.4S20.2,0,19.9,0c-0.3,0-0.8,0.4-0.8,0.4L0.8,11.9
		c0,0-0.8,0.4-0.8,1.2V37c0,0-0.3,0.5,0.6,1c0.9,0.5,18.8,11.8,18.8,11.8s0.4,0.4,1,0c0.7-0.4,19-11.9,19-11.9S40,37.7,40,37
		c0-0.6,0-23.8,0-23.8S40.2,12.6,39.6,12.2z"/>
</g>
<g>
	<path fill="#FFFFFF" d="M21.5,20.6c0,0.8,0,1.6,0,2.3c0,0,0,0,0,0c0,0,0-0.1,0.1-0.1c0.3-0.4,0.6-0.8,0.9-1.2
		c0.7-0.7,1.6-1.1,2.5-1.3c0.7-0.1,1.4-0.2,2.1-0.1c0.7,0.1,1.3,0.2,1.9,0.5c1.1,0.5,1.9,1.4,2.5,2.5c0.3,0.7,0.6,1.4,0.7,2.2
		c0.1,0.8,0.2,1.5,0.2,2.3c0,3.2,0,6.4,0,9.6c0,0,0,0.1,0,0.1c-1.8,0-3.6,0-5.4,0c0,0,0,0,0-0.1c0,0,0-0.1,0-0.1c0-3,0-6,0-8.9
		c0-0.5,0-0.9-0.1-1.3c-0.1-0.4-0.2-0.8-0.4-1.1c-0.4-0.7-1-1.1-1.8-1.2c-0.5-0.1-1,0-1.5,0.2c-0.6,0.2-1,0.7-1.4,1.2
		c-0.2,0.3-0.4,0.7-0.4,1.1c0,0.3-0.1,0.5-0.1,0.8c0,3.1,0,6.2,0,9.3c0,0,0,0.1,0,0.1c0,0,0,0,0,0c0,0,0,0,0,0c0,0,0,0,0,0
		c-1.8,0-3.5,0-5.3,0c0,0,0,0,0,0c0-5.6,0.1-11.2,0-16.8c0,0,0,0,0,0c0,0,0,0,0,0C17.9,20.6,19.7,20.6,21.5,20.6
		C21.5,20.6,21.5,20.6,21.5,20.6z"/>
	<path fill="#FFFFFF" d="M7.9,20.6c1.8,0,3.6,0,5.4,0c0,5.6,0,11.2,0,16.9c-1.8,0-3.6,0-5.4,0C7.9,31.9,7.9,26.3,7.9,20.6z"/>
	<path fill="#FFFFFF" d="M10.6,12.5c0.4,0,0.9,0.1,1.3,0.3c0.9,0.4,1.4,1.1,1.6,2c0.1,0.7,0.1,1.3-0.2,1.9c-0.3,0.7-0.9,1.2-1.6,1.4
		c-0.5,0.2-1,0.2-1.5,0.2c-0.4,0-0.8-0.1-1.2-0.3c-0.8-0.5-1.3-1.2-1.5-2.2c-0.1-0.6,0-1.3,0.3-1.8c0.4-0.7,0.9-1.1,1.7-1.3
		C9.9,12.5,10.2,12.5,10.6,12.5z"/>
</g>
</svg>
