<?xml version="1.0" encoding="utf-8"?>
<!-- Generator: Adobe Illustrator 18.1.0, SVG Export Plug-In . SVG Version: 6.00 Build 0)  -->
<svg version="1.1" id="Layer_1" xmlns="http://www.w3.org/2000/svg" xmlns:xlink="http://www.w3.org/1999/xlink" x="0px" y="0px"
	 viewBox="454.4 248.7 50 62.3" enable-background="new 454.4 248.7 50 62.3" xml:space="preserve">
<g>
	<path fill="#333333" d="M503.8,263.9c-0.9-0.5-23.5-14.7-23.5-14.7s-0.7-0.5-1.1-0.5c-0.4,0-1,0.5-1,0.5l-22.8,14.3
		c0,0-1,0.5-1,1.5v29.8c0,0-0.4,0.6,0.7,1.2c1.1,0.6,23.5,14.7,23.5,14.7s0.5,0.5,1.2,0c0.9-0.5,23.7-14.8,23.7-14.8
		s0.7-0.2,0.7-1.1c0-0.7,0-29.7,0-29.7S504.6,264.4,503.8,263.9z"/>
</g>
<g>
	<path fill="#FFFFFF" d="M463.8,288.9c0-6.1,0-12.2,0-18.3c0.2,0,0.4,0,0.6,0c3.2,0,6.4,0,9.6,0c1.2,0,2.5,0.2,3.5,1
		c2.5,1.6,2.5,5.1,0,7c-0.2,0.1-0.4,0.2-0.6,0.5c0.4,0.1,0.6,0.2,0.9,0.4c3.5,1.6,3.1,6.6,0.5,8.2c-1.2,0.7-2.6,1.2-4,1.2
		c-3.4,0-6.7,0-10,0C464,288.9,463.9,288.9,463.8,288.9z M468.1,285.8c1.9,0,3.6,0,5.4,0c1.1,0,2-0.7,2.4-1.7
		c0.5-1.6-0.7-3.2-2.7-3.2c-1.5,0-3,0-4.5,0c-0.1,0-0.2,0-0.4,0C468.1,282.4,468.1,284,468.1,285.8z M468.1,277.9c0.1,0,0.1,0,0.1,0
		c1.5,0,2.9,0,4.4,0c1.4,0,2.5-0.9,2.5-2.1s-1-2.1-2.4-2.2c-1.1,0-2.2,0-3.4,0c-0.4,0-0.7,0-1.2,0c0,1.4,0,2.6,0,3.9
		C468.1,277.6,468.1,277.8,468.1,277.9z"/>
	<path fill="#FFFFFF" d="M484.7,283.1c0.1,2.6,2.5,4.2,4.9,3.1c0.5-0.2,1-0.6,1.4-1.1c0.2-0.2,0.4-0.4,0.7-0.4c1,0,1.9,0,3,0
		c-0.4,1.4-1,2.4-2,3.1c-2.2,1.7-7.5,2-10-0.6c-2.1-2.2-2.5-6.2-0.7-8.9c1.7-2.6,5.1-3.7,8.2-2.7c3.1,1,5.1,4,4.7,7.2
		c0,0,0,0.1-0.1,0.1C491.6,283.1,488.2,283.1,484.7,283.1z M491.1,280.9c0-1.6-1.5-3-3.1-3s-3.2,1.4-3.1,3
		C486.8,280.9,489,280.9,491.1,280.9z"/>
	<path fill="#FFFFFF" d="M492,271.8c0,0.6,0,1.1,0,1.7c-2.7,0-5.5,0-8.4,0c0-0.6,0-1.1,0-1.7C486.3,271.8,489.1,271.8,492,271.8z"/>
</g>
</svg>
