<?xml version="1.0" encoding="utf-8"?>
<!-- Generator: Adobe Illustrator 18.1.0, SVG Export Plug-In . SVG Version: 6.00 Build 0)  -->
<svg version="1.1" id="Layer_1" xmlns="http://www.w3.org/2000/svg" xmlns:xlink="http://www.w3.org/1999/xlink" x="0px" y="0px"
	 viewBox="430 221.5 100 117" enable-background="new 430 221.5 100 117" xml:space="preserve">
<path opacity="0.9" fill="#333333" d="M528.7,250c-1.6-0.9-46.6-27.6-46.6-27.6s-1.4-0.9-2.2-0.9s-2,0.9-2,0.9l-45.7,27
	c0,0-2.3,1-2.3,2.8v55.9c0,0-0.3,1.1,1.8,2.3c2.1,1.2,46.8,27.5,46.8,27.5s1.1,1,2.7,0c1.6-1,47.1-27.8,47.1-27.8s1.5-0.5,1.5-2
	c0-1.5,0-55.7,0-55.7S530.4,250.9,528.7,250z"/>
<g>
	<path fill="#FFFFFF" d="M445,300.3c0-13.7,0-27.4,0-41.1c0.4,0,0.9,0,1.3,0c7.2,0,14.4,0,21.6,0c2.7,0,5.6,0.4,7.9,2.2
		c5.6,3.6,5.6,11.5,0,15.7c-0.4,0.2-0.9,0.4-1.3,1.1c0.9,0.2,1.3,0.4,2,0.9c7.9,3.6,7,14.8,1.1,18.4c-2.7,1.6-5.8,2.7-9,2.7
		c-7.6,0-15.1,0-22.5,0C445.4,300.3,445.2,300.3,445,300.3z M454.7,293.4c4.3,0,8.1,0,12.1,0c2.5,0,4.5-1.6,5.4-3.8
		c1.1-3.6-1.6-7.2-6.1-7.2c-3.4,0-6.7,0-10.1,0c-0.2,0-0.4,0-0.9,0C454.7,285.7,454.7,289.3,454.7,293.4z M454.7,275.6
		c0.2,0,0.2,0,0.2,0c3.4,0,6.5,0,9.9,0c3.1,0,5.6-2,5.6-4.7c0-2.7-2.2-4.7-5.4-4.9c-2.5,0-4.9,0-7.6,0c-0.9,0-1.6,0-2.7,0
		c0,3.1,0,5.8,0,8.8C454.7,274.9,454.7,275.4,454.7,275.6z"/>
	<path fill="#FFFFFF" d="M492,287.3c0.2,5.8,5.6,9.4,11,7c1.1-0.4,2.2-1.3,3.1-2.5c0.4-0.4,0.9-0.9,1.6-0.9c2.2,0,4.3,0,6.7,0
		c-0.9,3.1-2.2,5.4-4.5,7c-4.9,3.8-16.9,4.5-22.5-1.3c-4.7-4.9-5.6-13.9-1.6-20c3.8-5.8,11.5-8.3,18.4-6.1s11.5,9,10.6,16.2
		c0,0,0,0.2-0.2,0.2C507.5,287.3,499.8,287.3,492,287.3z M506.3,282.3c0-3.6-3.4-6.7-7-6.7c-3.6,0-7.2,3.1-7,6.7
		C496.7,282.3,501.6,282.3,506.3,282.3z"/>
	<path fill="#FFFFFF" d="M508.4,261.9c0,1.3,0,2.5,0,3.8c-6.1,0-12.4,0-18.9,0c0-1.3,0-2.5,0-3.8
		C495.6,261.9,501.9,261.9,508.4,261.9z"/>
</g>
</svg>
