<?xml version="1.0" encoding="utf-8"?>
<!-- Generator: Adobe Illustrator 18.1.0, SVG Export Plug-In . SVG Version: 6.00 Build 0)  -->
<svg version="1.1" id="Layer_1" xmlns="http://www.w3.org/2000/svg" xmlns:xlink="http://www.w3.org/1999/xlink" x="0px" y="0px"
	 viewBox="0 0 40.1 50" enable-background="new 0 0 40.1 50" xml:space="preserve">
<g>
	<path fill="#333333" d="M39.6,12.2C38.9,11.8,20.8,0.4,20.8,0.4S20.2,0,19.9,0c-0.3,0-0.8,0.4-0.8,0.4L0.8,11.9
		c0,0-0.8,0.4-0.8,1.2V37c0,0-0.3,0.5,0.6,1c0.9,0.5,18.8,11.8,18.8,11.8s0.4,0.4,1,0c0.7-0.4,19-11.9,19-11.9S40,37.7,40,37
		c0-0.6,0-23.8,0-23.8S40.2,12.6,39.6,12.2z"/>
</g>
<g>
	<path fill="#ED4223" d="M31.7,22.4c-0.8,1.7-1.7,3.3-2.8,4.8c-1.5,2.1-3,4.1-4.9,5.9c-1.1,1-2.2,1.9-3.6,2.4
		c-1.7,0.6-2.9,0.3-4-1.2c-0.8-1.1-1.2-2.3-1.6-3.6c-0.7-2.5-1.4-5-2.1-7.5c-0.2-0.6-0.5-1.2-0.8-1.7c-0.2-0.3-0.4-0.6-0.6-0.8
		c-0.3-0.3-0.6-0.3-1-0.1c-0.5,0.3-1,0.6-1.6,1c-0.4-0.5-0.8-1-1.1-1.4c0,0,0-0.1,0-0.1c1.7-1.5,3.4-3,5.2-4.4
		c0.6-0.5,1.3-0.9,2.1-1c1.2-0.1,2.1,0.3,2.7,1.3c0.6,1,0.8,2.1,1,3.2c0.4,2.3,0.7,4.6,1.4,6.9c0.2,0.6,0.4,1.1,0.7,1.7
		c0.4,0.6,0.8,0.7,1.4,0.2c0.2-0.2,0.4-0.4,0.6-0.6c1.1-1.4,2.1-2.8,2.6-4.5c0.2-0.5,0.2-1.1,0.2-1.7c0-0.8-0.5-1.3-1.3-1.3
		c-0.6,0-1.2,0.1-1.8,0.2c-0.1,0-0.2,0.1-0.3,0.1c1.2-4.4,4.3-6.4,8.1-5.6c1.4,0.3,2.1,1.3,2.4,2.7C32.8,18.9,32.4,20.7,31.7,22.4z"
		/>
	<path fill="#333333" d="M31.7,22.4c-0.8,1.7-1.7,3.3-2.8,4.8c-1.5,2.1-3,4.1-4.9,5.9c-1.1,1-2.2,1.9-3.6,2.4
		c-1.7,0.6-2.9,0.3-4-1.2c-0.8-1.1-1.2-2.3-1.6-3.6c-0.7-2.5-1.4-5-2.1-7.5c-0.2-0.6-0.5-1.2-0.8-1.7c-0.2-0.3-0.4-0.6-0.6-0.8
		c-0.3-0.3-0.6-0.3-1-0.1c-0.5,0.3-1,0.6-1.6,1c-0.4-0.5-0.8-1-1.1-1.4c0,0,0-0.1,0-0.1c1.7-1.5,3.4-3,5.2-4.4
		c0.6-0.5,1.3-0.9,2.1-1c1.2-0.1,2.1,0.3,2.7,1.3c0.6,1,0.8,2.1,1,3.2c0.4,2.3,0.7,4.6,1.4,6.9c0.2,0.6,0.4,1.1,0.7,1.7
		c0.4,0.6,0.8,0.7,1.4,0.2c0.2-0.2,0.4-0.4,0.6-0.6c1.1-1.4,2.1-2.8,2.6-4.5c0.2-0.5,0.2-1.1,0.2-1.7c0-0.8-0.5-1.3-1.3-1.3
		c-0.6,0-1.2,0.1-1.8,0.2c-0.1,0-0.2,0.1-0.3,0.1c1.2-4.4,4.3-6.4,8.1-5.6c1.4,0.3,2.1,1.3,2.4,2.7C32.8,18.9,32.4,20.7,31.7,22.4z"
		/>
	<path fill="#FFFFFF" d="M31.7,22.4c-0.8,1.7-1.7,3.3-2.8,4.8c-1.5,2.1-3,4.1-4.9,5.9c-1.1,1-2.2,1.9-3.6,2.4
		c-1.7,0.6-2.9,0.3-4-1.2c-0.8-1.1-1.2-2.3-1.6-3.6c-0.7-2.5-1.4-5-2.1-7.5c-0.2-0.6-0.5-1.2-0.8-1.7c-0.2-0.3-0.4-0.6-0.6-0.8
		c-0.3-0.3-0.6-0.3-1-0.1c-0.5,0.3-1,0.6-1.6,1c-0.4-0.5-0.8-1-1.1-1.4c0,0,0-0.1,0-0.1c1.7-1.5,3.4-3,5.2-4.4
		c0.6-0.5,1.3-0.9,2.1-1c1.2-0.1,2.1,0.3,2.7,1.3c0.6,1,0.8,2.1,1,3.2c0.4,2.3,0.7,4.6,1.4,6.9c0.2,0.6,0.4,1.1,0.7,1.7
		c0.4,0.6,0.8,0.7,1.4,0.2c0.2-0.2,0.4-0.4,0.6-0.6c1.1-1.4,2.1-2.8,2.6-4.5c0.2-0.5,0.2-1.1,0.2-1.7c0-0.8-0.5-1.3-1.3-1.3
		c-0.6,0-1.2,0.1-1.8,0.2c-0.1,0-0.2,0.1-0.3,0.1c1.2-4.4,4.3-6.4,8.1-5.6c1.4,0.3,2.1,1.3,2.4,2.7C32.8,18.9,32.4,20.7,31.7,22.4z"
		/>
</g>
</svg>
