<?xml version="1.0" encoding="utf-8"?>
<!-- Generator: Adobe Illustrator 18.1.0, SVG Export Plug-In . SVG Version: 6.00 Build 0)  -->
<svg version="1.1" id="Layer_1" xmlns="http://www.w3.org/2000/svg" xmlns:xlink="http://www.w3.org/1999/xlink" x="0px" y="0px"
	 viewBox="0 0 40.1 50" enable-background="new 0 0 40.1 50" xml:space="preserve">
<g>
	<path fill="#333333" d="M39.6,12.2C38.9,11.8,20.8,0.4,20.8,0.4S20.2,0,19.9,0c-0.3,0-0.8,0.4-0.8,0.4L0.8,11.9
		c0,0-0.8,0.4-0.8,1.2V37c0,0-0.3,0.5,0.6,1c0.9,0.5,18.8,11.8,18.8,11.8s0.4,0.4,1,0c0.7-0.4,19-11.9,19-11.9S40,37.7,40,37
		c0-0.6,0-23.8,0-23.8S40.2,12.6,39.6,12.2z"/>
</g>
<g>
	<path fill="#FFFFFF" d="M7.5,32.2c0-4.9,0-9.8,0-14.7c0.2,0,0.3,0,0.5,0c2.6,0,5.1,0,7.7,0c1,0,2,0.2,2.8,0.8c2,1.3,2,4.1,0,5.6
		c-0.2,0.1-0.3,0.2-0.5,0.4c0.3,0.1,0.5,0.2,0.7,0.3c2.8,1.3,2.5,5.3,0.4,6.6c-1,0.6-2.1,1-3.2,1c-2.7,0-5.4,0-8,0
		C7.7,32.2,7.6,32.2,7.5,32.2z M11,29.7c1.5,0,2.9,0,4.3,0c0.9,0,1.6-0.6,1.9-1.4c0.4-1.3-0.6-2.6-2.2-2.6c-1.2,0-2.4,0-3.6,0
		c-0.1,0-0.2,0-0.3,0C11,27,11,28.3,11,29.7z M11,23.4c0.1,0,0.1,0,0.1,0c1.2,0,2.3,0,3.5,0c1.1,0,2-0.7,2-1.7c0-1-0.8-1.7-1.9-1.8
		c-0.9,0-1.8,0-2.7,0c-0.3,0-0.6,0-1,0c0,1.1,0,2.1,0,3.1C11,23.2,11,23.3,11,23.4z"/>
	<path fill="#FFFFFF" d="M24.3,27.6c0.1,2.1,2,3.4,3.9,2.5c0.4-0.2,0.8-0.5,1.1-0.9c0.2-0.2,0.3-0.3,0.6-0.3c0.8,0,1.5,0,2.4,0
		c-0.3,1.1-0.8,1.9-1.6,2.5c-1.8,1.4-6,1.6-8-0.5c-1.7-1.8-2-5-0.6-7.1c1.4-2.1,4.1-3,6.6-2.2c2.5,0.8,4.1,3.2,3.8,5.8
		c0,0,0,0.1-0.1,0.1C29.8,27.6,27.1,27.6,24.3,27.6z M29.4,25.8c0-1.3-1.2-2.4-2.5-2.4c-1.3,0-2.6,1.1-2.5,2.4
		C26,25.8,27.7,25.8,29.4,25.8z"/>
	<path fill="#FFFFFF" d="M30.1,18.5c0,0.5,0,0.9,0,1.4c-2.2,0-4.4,0-6.7,0c0-0.5,0-0.9,0-1.4C25.6,18.5,27.8,18.5,30.1,18.5z"/>
</g>
</svg>
