<?xml version="1.0" encoding="utf-8"?>
<!-- Generator: Adobe Illustrator 18.1.0, SVG Export Plug-In . SVG Version: 6.00 Build 0)  -->
<svg version="1.1" id="Layer_1" xmlns="http://www.w3.org/2000/svg" xmlns:xlink="http://www.w3.org/1999/xlink" x="0px" y="0px"
	 viewBox="454.4 248.7 50 62.3" enable-background="new 454.4 248.7 50 62.3" xml:space="preserve">
<g>
	<path fill="#333333" d="M503.8,263.9c-0.9-0.5-23.5-14.7-23.5-14.7s-0.7-0.5-1.1-0.5c-0.4,0-1,0.5-1,0.5l-22.8,14.3
		c0,0-1,0.5-1,1.5v29.8c0,0-0.4,0.6,0.7,1.2c1.1,0.6,23.5,14.7,23.5,14.7s0.5,0.5,1.2,0c0.9-0.5,23.7-14.8,23.7-14.8
		s0.7-0.2,0.7-1.1c0-0.7,0-29.7,0-29.7S504.6,264.4,503.8,263.9z"/>
</g>
<g>
	<path fill="#FFFFFF" d="M481.2,274.4c0,1,0,2,0,2.9l0,0c0,0,0-0.1,0.1-0.1c0.4-0.5,0.7-1,1.1-1.5c0.9-0.9,2-1.4,3.1-1.6
		c0.9-0.1,1.7-0.2,2.6-0.1c0.9,0.1,1.6,0.2,2.4,0.6c1.4,0.6,2.4,1.7,3.1,3.1c0.4,0.9,0.7,1.7,0.9,2.7c0.1,1,0.2,1.9,0.2,2.9
		c0,4,0,8,0,12v0.1c-2.2,0-4.5,0-6.7,0c0,0,0,0,0-0.1v-0.1c0-3.7,0-7.5,0-11.1c0-0.6,0-1.1-0.1-1.6c-0.1-0.5-0.2-1-0.5-1.4
		c-0.5-0.9-1.2-1.4-2.2-1.5c-0.6-0.1-1.2,0-1.9,0.2c-0.7,0.2-1.2,0.9-1.7,1.5c-0.2,0.4-0.5,0.9-0.5,1.4c0,0.4-0.1,0.6-0.1,1
		c0,3.9,0,7.7,0,11.6v0.1l0,0l0,0l0,0c-2.2,0-4.4,0-6.6,0l0,0c0-7,0.1-14,0-21l0,0l0,0C476.7,274.4,479,274.4,481.2,274.4
		L481.2,274.4z"/>
	<path fill="#FFFFFF" d="M464.3,274.4c2.2,0,4.5,0,6.7,0c0,7,0,14,0,21.1c-2.2,0-4.5,0-6.7,0C464.3,288.5,464.3,281.5,464.3,274.4z"
		/>
	<path fill="#FFFFFF" d="M467.6,264.3c0.5,0,1.1,0.1,1.6,0.4c1.1,0.5,1.7,1.4,2,2.5c0.1,0.9,0.1,1.6-0.2,2.4c-0.4,0.9-1.1,1.5-2,1.7
		c-0.6,0.2-1.2,0.2-1.9,0.2c-0.5,0-1-0.1-1.5-0.4c-1-0.6-1.6-1.5-1.9-2.7c-0.1-0.7,0-1.6,0.4-2.2c0.5-0.9,1.1-1.4,2.1-1.6
		C466.8,264.3,467.1,264.3,467.6,264.3z"/>
</g>
</svg>
