<?xml version="1.0" encoding="utf-8"?>
<!-- Generator: Adobe Illustrator 18.1.0, SVG Export Plug-In . SVG Version: 6.00 Build 0)  -->
<svg version="1.1" id="Layer_3" xmlns="http://www.w3.org/2000/svg" xmlns:xlink="http://www.w3.org/1999/xlink" x="0px" y="0px"
	 viewBox="935 523.8 25 37" enable-background="new 935 523.8 25 37" xml:space="preserve">
<path fill="#333333" d="M960,536c0-6.7-5.6-12.2-12.5-12.2S935,529.3,935,536c0,4.3,2.3,8.1,5.8,10.3v3.9H940v2.5h1.8v5.7l1.1,1.2
	l1.9,1.2h5.4l1.9-1.2l1.1-1.3v-5.7h1.8v-2.5h-0.7v-3.8C957.7,544.1,960,540.3,960,536z M948.3,550.2h-1.7v-6.6h1.7V550.2z
	 M950,540.8c0-0.5,0.4-1,1-1c0.5,0,1,0.4,1,1c0,0.5-0.4,1-1,1S950,541.3,950,540.8z M953.1,544.8c-0.3,0.2-0.6,0.4-0.9,0.5v4.9h-1.9
	v-6.7c0.2,0.1,0.4,0.1,0.7,0.1c1.5,0,2.8-1.3,2.8-2.8s-1.2-2.8-2.8-2.8c-1.5,0-2.8,1.3-2.8,2.8c0,0.2,0,0.5,0.1,0.7h-1.8
	c0.1-0.2,0.1-0.4,0.1-0.7c0-1.5-1.2-2.8-2.8-2.8c-1.5,0-2.8,1.3-2.8,2.8s1.2,2.8,2.8,2.8c0.3,0,0.5,0,0.8-0.1v6.7h-1.7v-4.9
	c-0.3-0.2-0.7-0.3-1-0.5c-3-1.8-5-5.1-5-8.7c0-5.7,4.7-10.3,10.6-10.3c5.8,0,10.6,4.6,10.6,10.3
	C958.1,539.7,956.1,542.9,953.1,544.8z M944.8,540.6c0,0.5-0.4,1-1,1c-0.5,0-1-0.4-1-1c0-0.5,0.4-1,1-1
	C944.3,539.6,944.8,540.1,944.8,540.6z"/>
</svg>
