<?xml version="1.0" encoding="utf-8"?>
<!-- Generator: Adobe Illustrator 18.1.0, SVG Export Plug-In . SVG Version: 6.00 Build 0)  -->
<svg version="1.1" id="Layer_3" xmlns="http://www.w3.org/2000/svg" xmlns:xlink="http://www.w3.org/1999/xlink" x="0px" y="0px"
	 viewBox="940.3 536.5 25 37.8" enable-background="new 940.3 536.5 25 37.8" xml:space="preserve">
<path fill="#333333" d="M948,537c-0.3-0.5-0.9-0.7-1.4-0.4l-5.8,3.5c-0.5,0.3-0.7,0.9-0.4,1.4l17.4,29.1l6.4,3.4l0.5,0.2
	c0.3,0.1,0.5-0.1,0.5-0.3l0-0.5l0-7.3L948,537z M959.4,569.6l4.1-2.5l0,4.7L959.4,569.6z M944.8,545.7l1.6-0.9l13.5,22.5l-1.6,0.9
	L944.8,545.7z M948.6,541.5l-4.7,2.8l-1.8-3.1l4.7-2.8L948.6,541.5z M963,565.5l-1.6,0.9l-13.5-22.5l1.6-0.9L963,565.5z"/>
</svg>
