<?xml version="1.0" encoding="utf-8"?>
<!-- Generator: Adobe Illustrator 18.1.0, SVG Export Plug-In . SVG Version: 6.00 Build 0)  -->
<svg version="1.1" id="Layer_3" xmlns="http://www.w3.org/2000/svg" xmlns:xlink="http://www.w3.org/1999/xlink" x="0px" y="0px"
	 viewBox="472.3 290.2 25 55" enable-background="new 472.3 290.2 25 55" xml:space="preserve">
<path fill="#333333" d="M486.3,310.1v-3.4c0,0,0-3.2-3.7-3.5c-0.2,0-0.4,0-0.6,0c-4.9,0-7.3,0.2-7.3-3c0-1.7,1.3-2.9,3-3.1
	c0.1,0,10.6,0.1,10.6,0.1s3.5,0,3.5-4.3v-2.7h-2.3v2.7c0,0,0.1,1.9-1.2,1.9h-10.4c-0.1,0-0.2,0-0.3,0c-3,0.1-5.4,2.5-5.4,5.4
	c0,2.8,2.2,5,5,5.3c0.1,0,1.2,0.1,1.5,0h3.3c0,0,1.9-0.1,1.9,1.2v3.4c-11.7,0.6-11,10.1-11,10.1V335c0,0-0.7,10.2,12.1,10.2
	c11.3,0,12.2-8,12.3-9.9V320C497.2,318.2,496.3,310.7,486.3,310.1z M486.3,312.5c7.3,0.6,8.1,6.7,8.2,8.4h-8.2V312.5z M483.8,312.5
	v8.4h-8.2C475.6,319.4,476.1,313,483.8,312.5z M494.5,333.9c0,0,0,0,0,0.1c0,1.1-0.3,8.8-9.5,8.8c-9.9,0-9.3-8.8-9.3-8.8v-10.7h18.9
	V333.9z"/>
</svg>
