<?xml version="1.0" encoding="utf-8"?>
<!-- Generator: Adobe Illustrator 18.1.0, SVG Export Plug-In . SVG Version: 6.00 Build 0)  -->
<svg version="1.1" id="Layer_1" xmlns="http://www.w3.org/2000/svg" xmlns:xlink="http://www.w3.org/1999/xlink" x="0px" y="0px"
	 viewBox="0 0 100 117" enable-background="new 0 0 100 117" xml:space="preserve">
<g>
	<g>
		<path fill="#FFFFFF" d="M16.4,85.5V40.3c0-0.7,0.8-1.2,1.4-0.8l31.7,20.3c0.3,0.2,0.7,0.2,1,0l31.7-20.3c0.6-0.4,1.4,0,1.4,0.8
			v45.4c0,0.4-0.2,0.7-0.5,0.8l0,0c-0.6,0.3-1.3-0.1-1.3-0.8V44c0-0.7-0.8-1.2-1.4-0.8l-29.8,19c-0.3,0.2-0.7,0.2-1,0L19.9,43.3
			c-0.6-0.4-1.4,0-1.4,0.8v41.5c0,0.7-0.7,1.2-1.4,0.8l-0.2-0.1C16.6,86.2,16.4,85.9,16.4,85.5z"/>
		<path fill="#FFFFFF" d="M78.9,32.8L50.5,49.8c-0.3,0.2-0.7,0.2-1,0l-28.4-17c-0.6-0.4-0.6-1.2,0-1.6l28.4-17.1
			c0.3-0.2,0.7-0.2,1,0l0.3,0.2c0.6,0.4,0.6,1.2,0,1.6L24.9,31.2c-0.6,0.4-0.6,1.3,0,1.6l9.9,5.7c0.3,0.2,0.6,0.2,0.9,0l13.8-8
			c0.3-0.2,0.7-0.2,0.9,0l0.1,0c0.6,0.4,0.6,1.3,0,1.6l-12.1,6.9c-0.6,0.4-0.6,1.2,0,1.6l11,6.8c0.3,0.2,0.7,0.2,1,0L77.5,31
			c0.3-0.2,0.7-0.2,1,0l0.4,0.2C79.5,31.5,79.5,32.4,78.9,32.8z"/>
	</g>
	<path fill="#FFFFFF" d="M98.7,28.5C97.1,27.5,52.2,0.9,52.2,0.9S50.8,0,50,0s-2,0.9-2,0.9l-45.7,27c0,0-2.3,1-2.3,2.8v55.9
		c0,0-0.3,1.1,1.8,2.3c2.1,1.2,46.8,27.5,46.8,27.5s1.1,1,2.7,0c1.6-1,47.1-27.8,47.1-27.8s1.5-0.5,1.5-2c0-1.5,0-55.7,0-55.7
		S100.4,29.4,98.7,28.5z M98.2,86.8L50,115.2L1.9,86.8V30.5L50,1.9l48.1,28.6V86.8z"/>
</g>
</svg>
