<?xml version="1.0" encoding="utf-8"?>
<!-- Generator: Adobe Illustrator 18.1.0, SVG Export Plug-In . SVG Version: 6.00 Build 0)  -->
<svg version="1.1" id="Layer_1" xmlns="http://www.w3.org/2000/svg" xmlns:xlink="http://www.w3.org/1999/xlink" x="0px" y="0px"
	 viewBox="429.9 221.2 100 116.9" enable-background="new 429.9 221.2 100 116.9" xml:space="preserve">
<g>
	<g>
		<path fill="#FFFFFF" d="M446.3,306.7v-45.2c0-0.7,0.8-1.2,1.4-0.8l31.7,20.3c0.3,0.2,0.7,0.2,1,0l31.7-20.3c0.6-0.4,1.4,0,1.4,0.8
			v45.4c0,0.4-0.2,0.7-0.5,0.8l0,0c-0.6,0.3-1.3-0.1-1.3-0.8v-41.7c0-0.7-0.8-1.2-1.4-0.8l-29.8,19c-0.3,0.2-0.7,0.2-1,0l-29.7-18.9
			c-0.6-0.4-1.4,0-1.4,0.8v41.5c0,0.7-0.7,1.2-1.4,0.8l-0.2-0.1C446.5,307.4,446.3,307.1,446.3,306.7z"/>
		<path fill="#FFFFFF" d="M508.8,254l-28.4,17c-0.3,0.2-0.7,0.2-1,0L451,254c-0.6-0.4-0.6-1.2,0-1.6l28.4-17.1c0.3-0.2,0.7-0.2,1,0
			l0.3,0.2c0.6,0.4,0.6,1.2,0,1.6l-25.9,15.3c-0.6,0.4-0.6,1.3,0,1.6l9.9,5.7c0.3,0.2,0.6,0.2,0.9,0l13.8-8c0.3-0.2,0.7-0.2,0.9,0
			h0.1c0.6,0.4,0.6,1.3,0,1.6l-12.1,6.9c-0.6,0.4-0.6,1.2,0,1.6l11,6.8c0.3,0.2,0.7,0.2,1,0l27.1-16.4c0.3-0.2,0.7-0.2,1,0l0.4,0.2
			C509.4,252.7,509.4,253.6,508.8,254z"/>
	</g>
	<path fill="#FFFFFF" d="M528.6,249.7c-1.6-1-46.5-27.6-46.5-27.6s-1.4-0.9-2.2-0.9c-0.8,0-2,0.9-2,0.9l-45.7,27c0,0-2.3,1-2.3,2.8
		v55.9c0,0-0.3,1.1,1.8,2.3c2.1,1.2,46.8,27.5,46.8,27.5s1.1,1,2.7,0c1.6-1,47.1-27.8,47.1-27.8s1.5-0.5,1.5-2s0-55.7,0-55.7
		S530.3,250.6,528.6,249.7z M528.1,308l-48.2,28.4L431.8,308v-56.3l48.1-28.6l48.1,28.6V308H528.1z"/>
</g>
</svg>
