<?xml version="1.0" encoding="utf-8"?>
<!-- Generator: Adobe Illustrator 18.1.0, SVG Export Plug-In . SVG Version: 6.00 Build 0)  -->
<svg version="1.1" id="Layer_1" xmlns="http://www.w3.org/2000/svg" xmlns:xlink="http://www.w3.org/1999/xlink" x="0px" y="0px"
	 viewBox="0 0 612 792" enable-background="new 0 0 612 792" xml:space="preserve">
<g>
	<path fill="#FFFFFF" stroke="#FFFFFF" stroke-width="20" stroke-miterlimit="10" d="M107.7,554.9V288.2c0-4.4,4.7-6.9,8.5-4.7
		l187,119.8c1.9,1.1,4.1,1.1,6.1,0l187-119.8c3.6-2.5,8.5,0.3,8.5,4.7V556c0,2.2-1.1,4.1-3,5l0,0c-3.6,1.9-8-0.8-8-5V310
		c0-4.4-4.7-6.9-8.5-4.7L309.6,417.4c-1.9,1.1-4.1,1.1-5.8,0L129,305.6c-3.6-2.2-8.5,0.3-8.5,4.7v244.9c0,4.1-4.4,6.9-8,5l-1.1-0.6
		C108.8,558.7,107.7,556.8,107.7,554.9z"/>
	<path fill="#FFFFFF" stroke="#FFFFFF" stroke-width="20" stroke-miterlimit="10" d="M476.5,243.4L309.1,343.9
		c-1.7,1.1-3.9,1.1-5.8,0L135.8,243.4c-3.6-2.2-3.6-7.2,0-9.4l167.5-100.5c1.7-1.1,3.9-1.1,5.8,0l1.7,1.1c3.6,2.2,3.6,7.4,0,9.4
		L158.1,234c-3.6,2.2-3.6,7.4,0,9.4l58.4,33.9c1.7,1.1,3.9,1.1,5.5,0l81.3-47.1c1.7-1.1,3.9-1.1,5.5,0l0.6,0.3
		c3.6,2.2,3.6,7.4,0,9.4l-71.1,41c-3.6,2.2-3.6,7.2-0.3,9.4l65.3,40.2c1.7,1.1,4.1,1.1,5.8,0l159.7-98.1c1.7-1.1,3.9-1.1,5.8,0
		l2.2,1.4C480.1,236.2,480.1,241.4,476.5,243.4z"/>
</g>
<path fill="#FFFFFF" stroke="#FFFFFF" stroke-width="20" stroke-miterlimit="10" d="M593.6,218C584,212.5,319,55.5,319,55.5
	s-8-5.5-12.9-5.5s-11.6,5.5-11.6,5.5L24.8,214.7c0,0-13.8,5.8-13.8,16.5v330.2c0,0-1.7,6.6,11,13.8
	c12.4,7.2,276.3,162.5,276.3,162.5s6.1,5.8,16,0c9.6-5.8,278.2-164.2,278.2-164.2s8.5-3,8.5-12.1c0-8.8,0-328.9,0-328.9
	S603.2,223.5,593.6,218z M590.3,562.3L306.3,730L22.1,562.3V230.1L306.3,61.3l284,168.8V562.3z"/>
</svg>
