<?xml version="1.0" encoding="utf-8"?>
<!-- Generator: Adobe Illustrator 18.1.0, SVG Export Plug-In . SVG Version: 6.00 Build 0)  -->
<svg version="1.1" id="Layer_1" xmlns="http://www.w3.org/2000/svg" xmlns:xlink="http://www.w3.org/1999/xlink" x="0px" y="0px"
	 viewBox="-4 86 620 620" enable-background="new -4 86 620 620" xml:space="preserve">
<g>
	<path fill="#FFFFFF" stroke="#FFFFFF" stroke-width="8" stroke-miterlimit="10" d="M0,396c0,167.3,138.7,306,306,306
		s306-138.7,306-306S473.3,90,306,90S0,228.7,0,396z M587.5,396c0,155-126.5,281.5-281.5,281.5S24.5,551,24.5,396
		S151,114.5,306,114.5C461,114.5,587.5,241,587.5,396z M311,448.1l136.8-136.8c2.8-2.8,7.4-2.8,10.2,0l6.1,6.1
		c2.8,2.8,2.8,7.4,0,10.2l-153,153c-2.8,2.8-7.4,2.8-10.2,0l-11.2-11.2L144,327.7c-2.9-2.8-2.9-7.4-0.1-10.3l6.1-6.1
		c2.8-2.8,7.3-2.8,10.1-0.1l140.8,137C303.7,450.9,308.2,450.9,311,448.1z"/>
</g>
</svg>
