<?xml version="1.0" encoding="utf-8"?>
<!-- Generator: Adobe Illustrator 18.1.0, SVG Export Plug-In . SVG Version: 6.00 Build 0)  -->
<svg version="1.1" id="Layer_1" xmlns="http://www.w3.org/2000/svg" xmlns:xlink="http://www.w3.org/1999/xlink" x="0px" y="0px"
	 viewBox="0 0 15 15" enable-background="new 0 0 15 15" xml:space="preserve">
<g>
	<path fill="#FFFFFF" d="M0,7.5C0,11.6,3.4,15,7.5,15S15,11.6,15,7.5C15,3.4,11.6,0,7.5,0S0,3.4,0,7.5z M14.4,7.5
		c0,3.8-3.1,6.9-6.9,6.9c-3.8,0-6.9-3.1-6.9-6.9c0-3.8,3.1-6.9,6.9-6.9C11.3,0.6,14.4,3.7,14.4,7.5z M7.5,8.9l3.6-3.6l0.4,0.4
		L7.5,9.7L7.1,9.3L3.4,5.7l0.4-0.4L7.5,8.9z"/>
</g>
</svg>
