<?xml version="1.0" encoding="utf-8"?>
<!-- Generator: Adobe Illustrator 18.1.0, SVG Export Plug-In . SVG Version: 6.00 Build 0)  -->
<svg version="1.1" id="Layer_1" xmlns="http://www.w3.org/2000/svg" xmlns:xlink="http://www.w3.org/1999/xlink" x="0px" y="0px"
	 viewBox="430 221.5 100 117" enable-background="new 430 221.5 100 117" xml:space="preserve">
<path opacity="0.9" fill="#333333" d="M528.7,250c-1.6-0.9-46.6-27.6-46.6-27.6s-1.4-0.9-2.2-0.9s-2,0.9-2,0.9l-45.7,27
	c0,0-2.3,1-2.3,2.8v55.9c0,0-0.3,1.1,1.8,2.3c2.1,1.2,46.8,27.5,46.8,27.5s1.1,1,2.7,0c1.6-1,47.1-27.8,47.1-27.8s1.5-0.5,1.5-2
	c0-1.5,0-55.7,0-55.7S530.4,250.9,528.7,250z"/>
<g>
	<path fill="#FFFFFF" d="M512.6,272.3c-2.3,4.7-4.7,9.2-7.9,13.5c-4.3,5.9-8.3,11.5-13.7,16.7c-3.2,2.7-6.1,5.4-10.1,6.8
		c-4.7,1.6-8.1,0.9-11.3-3.4c-2.3-3.2-3.4-6.5-4.5-10.1c-2-7-3.8-14-5.9-21.2c-0.5-1.6-1.4-3.4-2.3-4.7c-0.5-0.9-1.1-1.6-1.6-2.3
		c-0.9-0.9-1.6-0.9-2.7-0.2c-1.4,0.9-2.7,1.6-4.5,2.7c-1.1-1.4-2.3-2.7-3.2-3.8V266c4.7-4.3,9.5-8.3,14.6-12.4
		c1.6-1.4,3.6-2.5,5.9-2.7c3.4-0.2,5.9,0.9,7.7,3.6c1.8,2.7,2.3,5.9,2.7,9c1.1,6.5,2,12.8,3.8,19.4c0.5,1.6,1.1,3.2,2,4.7
		c1.1,1.6,2.3,2,3.8,0.5c0.5-0.5,1.1-1.1,1.6-1.6c3.2-3.8,5.9-7.9,7.2-12.6c0.5-1.4,0.5-3.2,0.5-4.7c0-2.3-1.4-3.6-3.6-3.6
		c-1.6,0-3.4,0.2-5,0.5c-0.2,0-0.5,0.2-0.9,0.2c3.4-12.4,12.2-18,22.7-15.8c3.8,0.9,5.9,3.6,6.8,7.7
		C515.5,262.6,514.4,267.6,512.6,272.3z"/>
	<path fill="#FFFFFF" d="M512.6,272.3c-2.3,4.7-4.7,9.2-7.9,13.5c-4.3,5.9-8.3,11.5-13.7,16.7c-3.2,2.7-6.1,5.4-10.1,6.8
		c-4.7,1.6-8.1,0.9-11.3-3.4c-2.3-3.2-3.4-6.5-4.5-10.1c-2-7-3.8-14-5.9-21.2c-0.5-1.6-1.4-3.4-2.3-4.7c-0.5-0.9-1.1-1.6-1.6-2.3
		c-0.9-0.9-1.6-0.9-2.7-0.2c-1.4,0.9-2.7,1.6-4.5,2.7c-1.1-1.4-2.3-2.7-3.2-3.8V266c4.7-4.3,9.5-8.3,14.6-12.4
		c1.6-1.4,3.6-2.5,5.9-2.7c3.4-0.2,5.9,0.9,7.7,3.6c1.8,2.7,2.3,5.9,2.7,9c1.1,6.5,2,12.8,3.8,19.4c0.5,1.6,1.1,3.2,2,4.7
		c1.1,1.6,2.3,2,3.8,0.5c0.5-0.5,1.1-1.1,1.6-1.6c3.2-3.8,5.9-7.9,7.2-12.6c0.5-1.4,0.5-3.2,0.5-4.7c0-2.3-1.4-3.6-3.6-3.6
		c-1.6,0-3.4,0.2-5,0.5c-0.2,0-0.5,0.2-0.9,0.2c3.4-12.4,12.2-18,22.7-15.8c3.8,0.9,5.9,3.6,6.8,7.7
		C515.5,262.6,514.4,267.6,512.6,272.3z"/>
	<path fill="#FFFFFF" d="M512.6,272.3c-2.3,4.7-4.7,9.2-7.9,13.5c-4.3,5.9-8.3,11.5-13.7,16.7c-3.2,2.7-6.1,5.4-10.1,6.8
		c-4.7,1.6-8.1,0.9-11.3-3.4c-2.3-3.2-3.4-6.5-4.5-10.1c-2-7-3.8-14-5.9-21.2c-0.5-1.6-1.4-3.4-2.3-4.7c-0.5-0.9-1.1-1.6-1.6-2.3
		c-0.9-0.9-1.6-0.9-2.7-0.2c-1.4,0.9-2.7,1.6-4.5,2.7c-1.1-1.4-2.3-2.7-3.2-3.8V266c4.7-4.3,9.5-8.3,14.6-12.4
		c1.6-1.4,3.6-2.5,5.9-2.7c3.4-0.2,5.9,0.9,7.7,3.6c1.8,2.7,2.3,5.9,2.7,9c1.1,6.5,2,12.8,3.8,19.4c0.5,1.6,1.1,3.2,2,4.7
		c1.1,1.6,2.3,2,3.8,0.5c0.5-0.5,1.1-1.1,1.6-1.6c3.2-3.8,5.9-7.9,7.2-12.6c0.5-1.4,0.5-3.2,0.5-4.7c0-2.3-1.4-3.6-3.6-3.6
		c-1.6,0-3.4,0.2-5,0.5c-0.2,0-0.5,0.2-0.9,0.2c3.4-12.4,12.2-18,22.7-15.8c3.8,0.9,5.9,3.6,6.8,7.7
		C515.5,262.6,514.4,267.6,512.6,272.3z"/>
</g>
</svg>
