<?xml version="1.0" encoding="utf-8"?>
<!-- Generator: Adobe Illustrator 18.1.0, SVG Export Plug-In . SVG Version: 6.00 Build 0)  -->
<svg version="1.1" id="Layer_1" xmlns="http://www.w3.org/2000/svg" xmlns:xlink="http://www.w3.org/1999/xlink" x="0px" y="0px"
	 viewBox="298.1 122 15.8 16" enable-background="new 298.1 122 15.8 16" xml:space="preserve">
<path fill="#FFFFFF" d="M306,130L306,130L306,130z"/>
<path fill="#333333" d="M306,122c-4.4,0-7.9,3.6-7.9,8c0,4.4,3.5,8,7.9,8c4.4,0,7.9-3.6,7.9-8C313.9,125.6,310.4,122,306,122z
	 M306,137.4c-4,0-7.3-3.3-7.3-7.4c0-4.1,3.3-7.4,7.3-7.4c4,0,7.3,3.3,7.3,7.4C313.3,134.1,310,137.4,306,137.4z M310.3,133.8
	l-0.5,0.5l-3.8-3.8l-3.8,3.8l-0.5-0.5l3.8-3.8l0,0l-3.8-3.8l0.5-0.5l3.8,3.8l3.8-3.8l0.5,0.5l-3.8,3.8l0,0L310.3,133.8z"/>
<path fill="#FFFFFF" d="M306,130L306,130L306,130z"/>
</svg>
