<?xml version="1.0" encoding="utf-8"?>
<!-- Generator: Adobe Illustrator 18.1.0, SVG Export Plug-In . SVG Version: 6.00 Build 0)  -->
<svg version="1.1" id="Layer_1" xmlns="http://www.w3.org/2000/svg" xmlns:xlink="http://www.w3.org/1999/xlink" x="0px" y="0px"
	 viewBox="474 274.3 600 600" enable-background="new 474 274.3 600 600" xml:space="preserve">
<path fill="#333333" d="M774,274.3c-165.6,0-300,134.4-300,300s134.4,300,300,300s300-134.4,300-300S939.6,274.3,774,274.3z
	 M774,850.3c-152.4,0-276-123.6-276-276s123.6-276,276-276s276,123.6,276,276S926.4,850.3,774,850.3z"/>
<path fill="#FFFFFF" d="M774,574.3L774,574.3L774,574.3z"/>
<polygon fill="#333333" points="936,718.3 918,736.3 774,592.3 630,736.3 612,718.3 756,574.3 756,574.3 612,430.3 630,412.3 
	774,556.3 918,412.3 936,430.3 792,574.3 792,574.3 "/>
<path fill="#FFFFFF" d="M774,574.3L774,574.3L774,574.3z"/>
</svg>
