<?xml version="1.0" encoding="utf-8"?>
<!-- Generator: Adobe Illustrator 18.1.0, SVG Export Plug-In . SVG Version: 6.00 Build 0)  -->
<svg version="1.1" id="Layer_1" xmlns="http://www.w3.org/2000/svg" xmlns:xlink="http://www.w3.org/1999/xlink" x="0px" y="0px"
	 viewBox="430 221.5 100 117" enable-background="new 430 221.5 100 117" xml:space="preserve">
<path opacity="0.9" fill="#333333" d="M528.7,250c-1.6-0.9-46.6-27.6-46.6-27.6s-1.4-0.9-2.2-0.9s-2,0.9-2,0.9l-45.7,27
	c0,0-2.3,1-2.3,2.8v55.9c0,0-0.3,1.1,1.8,2.3c2.1,1.2,46.8,27.5,46.8,27.5s1.1,1,2.7,0c1.6-1,47.1-27.8,47.1-27.8s1.5-0.5,1.5-2
	c0-1.5,0-55.7,0-55.7S530.4,250.9,528.7,250z"/>
<g>
	<path fill="#FFFFFF" d="M483.9,269.4c0,1.9,0,3.9,0,5.6l0,0c0,0,0-0.2,0.2-0.2c0.8-1,1.4-1.9,2.1-2.9c1.7-1.7,3.9-2.7,6-3.1
		c1.7-0.2,3.3-0.4,5-0.2c1.7,0.2,3.1,0.4,4.6,1.2c2.7,1.2,4.6,3.3,6,6c0.8,1.7,1.4,3.3,1.7,5.2c0.2,1.9,0.4,3.7,0.4,5.6
		c0,7.7,0,15.5,0,23.2v0.2c-4.3,0-8.7,0-13,0c0,0,0,0,0-0.2v-0.2c0-7.2,0-14.5,0-21.5c0-1.2,0-2.1-0.2-3.1c-0.2-1-0.4-1.9-1-2.7
		c-1-1.7-2.3-2.7-4.3-2.9c-1.2-0.2-2.3,0-3.7,0.4c-1.4,0.4-2.3,1.7-3.3,2.9c-0.4,0.8-1,1.7-1,2.7c0,0.8-0.2,1.2-0.2,1.9
		c0,7.5,0,14.9,0,22.4v0.2l0,0l0,0l0,0c-4.3,0-8.5,0-12.8,0l0,0c0-13.5,0.2-27.1,0-40.6l0,0l0,0
		C475.2,269.4,479.6,269.4,483.9,269.4L483.9,269.4z"/>
	<path fill="#FFFFFF" d="M451.2,269.4c4.3,0,8.7,0,13,0c0,13.5,0,27.1,0,40.8c-4.3,0-8.7,0-13,0
		C451.2,296.6,451.2,283.1,451.2,269.4z"/>
	<path fill="#FFFFFF" d="M457.6,249.8c1,0,2.1,0.2,3.1,0.8c2.1,1,3.3,2.7,3.9,4.8c0.2,1.7,0.2,3.1-0.4,4.6c-0.8,1.7-2.1,2.9-3.9,3.3
		c-1.2,0.4-2.3,0.4-3.7,0.4c-1,0-1.9-0.2-2.9-0.8c-1.9-1.2-3.1-2.9-3.7-5.2c-0.2-1.4,0-3.1,0.8-4.3c1-1.7,2.1-2.7,4.1-3.1
		C456.1,249.8,456.6,249.8,457.6,249.8z"/>
</g>
</svg>
