<?xml version="1.0" encoding="utf-8"?>
<!-- Generator: Adobe Illustrator 18.1.0, SVG Export Plug-In . SVG Version: 6.00 Build 0)  -->
<svg version="1.1" id="Layer_1" xmlns="http://www.w3.org/2000/svg" xmlns:xlink="http://www.w3.org/1999/xlink" x="0px" y="0px"
	 viewBox="0 0 33.6 36.3" enable-background="new 0 0 33.6 36.3" xml:space="preserve">
<g>
	<g>
		<path fill="#444444" d="M0,35.8V13.2c0-0.4,0.4-0.6,0.7-0.4l15.8,10.2c0.2,0.1,0.3,0.1,0.5,0l15.8-10.2c0.3-0.2,0.7,0,0.7,0.4
			v22.7c0,0.2-0.1,0.3-0.3,0.4l0,0c-0.3,0.2-0.7-0.1-0.7-0.4V15c0-0.4-0.4-0.6-0.7-0.4l-14.9,9.5c-0.2,0.1-0.3,0.1-0.5,0L1.7,14.7
			C1.4,14.5,1,14.7,1,15v20.7c0,0.4-0.4,0.6-0.7,0.4l-0.1,0C0.1,36.1,0,35.9,0,35.8z"/>
		<path fill="#444444" d="M31.2,9.4L17,17.9c-0.1,0.1-0.3,0.1-0.5,0L2.4,9.4c-0.3-0.2-0.3-0.6,0-0.8l14.2-8.5C16.7,0,16.9,0,17,0.1
			l0.2,0.1c0.3,0.2,0.3,0.6,0,0.8L4.3,8.6C4,8.8,4,9.2,4.3,9.4l4.9,2.9c0.1,0.1,0.3,0.1,0.5,0l6.9-4c0.1-0.1,0.3-0.1,0.5,0l0,0
			c0.3,0.2,0.3,0.6,0,0.8l-6,3.5c-0.3,0.2-0.3,0.6,0,0.8l5.5,3.4c0.1,0.1,0.3,0.1,0.5,0l13.5-8.3c0.1-0.1,0.3-0.1,0.5,0l0.2,0.1
			C31.5,8.8,31.5,9.2,31.2,9.4z"/>
	</g>
</g>
</svg>
