<?xml version="1.0" encoding="utf-8"?>
<!-- Generator: Adobe Illustrator 18.1.0, SVG Export Plug-In . SVG Version: 6.00 Build 0)  -->
<svg version="1.1" id="Layer_1" xmlns="http://www.w3.org/2000/svg" xmlns:xlink="http://www.w3.org/1999/xlink" x="0px" y="0px"
	 viewBox="113.2 776.7 610.3 710.3" enable-background="new 113.2 776.7 610.3 710.3" xml:space="preserve">
<g>
	<path fill="#FF9966" stroke="#FF9966" stroke-width="20" stroke-miterlimit="10" d="M220,1291.5v-266.6c0-4.4,4.7-6.9,8.5-4.7
		l187,119.8c1.9,1.1,4.1,1.1,6.1,0l187-119.8c3.6-2.5,8.5,0.3,8.5,4.7v267.7c0,2.2-1.1,4.1-3,5l0,0c-3.6,1.9-8-0.8-8-5v-246
		c0-4.4-4.7-6.9-8.5-4.7l-175.7,112.1c-1.9,1.1-4.1,1.1-5.8,0l-174.9-111.8c-3.6-2.2-8.5,0.3-8.5,4.7v244.9c0,4.1-4.4,6.9-8,5
		l-1.1-0.6C221.1,1295.4,220,1293.5,220,1291.5z"/>
	<path fill="#FF9966" stroke="#FF9966" stroke-width="20" stroke-miterlimit="10" d="M588.8,980l-167.5,100.5
		c-1.7,1.1-3.9,1.1-5.8,0L248.1,980c-3.6-2.2-3.6-7.2,0-9.4l167.5-100.5c1.7-1.1,3.9-1.1,5.8,0l1.7,1.1c3.6,2.2,3.6,7.4,0,9.4
		l-152.6,90.1c-3.6,2.2-3.6,7.4,0,9.4l58.4,33.9c1.7,1.1,3.9,1.1,5.5,0l81.3-47.1c1.7-1.1,3.9-1.1,5.5,0l0.6,0.3
		c3.6,2.2,3.6,7.4,0,9.4l-71.1,41c-3.6,2.2-3.6,7.2-0.3,9.4l65.3,40.2c1.7,1.1,4.1,1.1,5.8,0L581.1,969c1.7-1.1,3.9-1.1,5.8,0
		l2.2,1.4C592.4,972.9,592.4,978.1,588.8,980z"/>
</g>
<path fill="#FF9966" stroke="#FF9966" stroke-width="20" stroke-miterlimit="10" d="M705.8,954.7c-9.6-5.5-274.6-162.5-274.6-162.5
	s-8-5.5-12.9-5.5s-11.6,5.5-11.6,5.5L137.1,951.4c0,0-13.8,5.8-13.8,16.5v330.2c0,0-1.7,6.6,11,13.8
	c12.4,7.2,276.3,162.5,276.3,162.5s6.1,5.8,16,0c9.6-5.8,278.2-164.2,278.2-164.2s8.5-3,8.5-12.1c0-8.8,0-328.9,0-328.9
	S715.5,960.2,705.8,954.7z M702.5,1299l-284,167.7L134.3,1299V966.8L418.6,798l284,168.8V1299z"/>
</svg>
