<?xml version="1.0" encoding="utf-8"?>
<!-- Generator: Adobe Illustrator 18.1.0, SVG Export Plug-In . SVG Version: 6.00 Build 0)  -->
<svg version="1.1" id="Layer_1" xmlns="http://www.w3.org/2000/svg" xmlns:xlink="http://www.w3.org/1999/xlink" x="0px" y="0px"
	 viewBox="0 0 50 58.5" enable-background="new 0 0 50 58.5" xml:space="preserve">
<g>
	<g>
		<path fill="#444444" d="M8.2,42.8V20.2c0-0.4,0.4-0.6,0.7-0.4l15.8,10.2c0.2,0.1,0.3,0.1,0.5,0l15.8-10.2c0.3-0.2,0.7,0,0.7,0.4
			v22.7c0,0.2-0.1,0.3-0.3,0.4l0,0c-0.3,0.2-0.7-0.1-0.7-0.4V22c0-0.4-0.4-0.6-0.7-0.4l-14.9,9.5c-0.2,0.1-0.3,0.1-0.5,0L9.9,21.7
			c-0.3-0.2-0.7,0-0.7,0.4v20.7c0,0.4-0.4,0.6-0.7,0.4l-0.1,0C8.3,43.1,8.2,42.9,8.2,42.8z"/>
		<path fill="#444444" d="M39.4,16.4l-14.2,8.5c-0.1,0.1-0.3,0.1-0.5,0l-14.2-8.5c-0.3-0.2-0.3-0.6,0-0.8l14.2-8.5
			c0.1-0.1,0.3-0.1,0.5,0l0.2,0.1c0.3,0.2,0.3,0.6,0,0.8l-12.9,7.6c-0.3,0.2-0.3,0.6,0,0.8l4.9,2.9c0.1,0.1,0.3,0.1,0.5,0l6.9-4
			c0.1-0.1,0.3-0.1,0.5,0l0,0c0.3,0.2,0.3,0.6,0,0.8l-6,3.5c-0.3,0.2-0.3,0.6,0,0.8l5.5,3.4c0.1,0.1,0.3,0.1,0.5,0l13.5-8.3
			c0.1-0.1,0.3-0.1,0.5,0l0.2,0.1C39.7,15.8,39.7,16.2,39.4,16.4z"/>
	</g>
	<path fill="#444444" d="M49.4,14.2C48.5,13.8,26.1,0.5,26.1,0.5S25.4,0,25,0s-1,0.5-1,0.5L1.2,13.9c0,0-1.2,0.5-1.2,1.4v28
		c0,0-0.1,0.6,0.9,1.2C2,45.1,24.3,58.3,24.3,58.3s0.5,0.5,1.3,0c0.8-0.5,23.6-13.9,23.6-13.9s0.7-0.3,0.7-1c0-0.8,0-27.9,0-27.9
		S50.2,14.7,49.4,14.2z M49.1,43.4L25,57.6L0.9,43.4V15.2L25,0.9l24.1,14.3V43.4z"/>
</g>
</svg>
