<?xml version="1.0" encoding="utf-8"?>
<!-- Generator: Adobe Illustrator 18.1.0, SVG Export Plug-In . SVG Version: 6.00 Build 0)  -->
<svg version="1.1" id="Layer_1" xmlns="http://www.w3.org/2000/svg" xmlns:xlink="http://www.w3.org/1999/xlink" x="0px" y="0px"
	 viewBox="0 0 15 15" enable-background="new 0 0 15 15" xml:space="preserve">
<g>
	<polygon opacity="0.9" fill="#FFFFFF" enable-background="new    " points="11.6,9.8 11.6,5.2 9,7.5 	"/>
	<polygon opacity="0.9" fill="#FFFFFF" enable-background="new    " points="7.5,8.8 6.3,7.8 3.7,10.1 11.3,10.1 8.7,7.8 	"/>
	<polygon opacity="0.9" fill="#FFFFFF" enable-background="new    " points="11.3,4.9 3.7,4.9 7.5,8.2 	"/>
	<polygon opacity="0.9" fill="#FFFFFF" enable-background="new    " points="3.4,5.2 3.4,9.8 6,7.5 	"/>
	<path opacity="0.9" fill="#FFFFFF" enable-background="new    " d="M13.8,3.7c-0.2-0.1-6-3.5-6-3.5S7.6,0,7.5,0
		C7.4,0,7.2,0.1,7.2,0.1L1.4,3.6c0,0-0.3,0.1-0.3,0.4v7.2c0,0,0,0.1,0.2,0.3s6,3.5,6,3.5s0.1,0.1,0.3,0s6-3.6,6-3.6s0.2-0.1,0.2-0.3
		s0-7.1,0-7.1S14,3.8,13.8,3.7z M12.1,10.5H2.9V4.5h9.2V10.5z"/>
</g>
</svg>
