<?xml version="1.0" encoding="utf-8"?>
<!-- Generator: Adobe Illustrator 18.1.0, SVG Export Plug-In . SVG Version: 6.00 Build 0)  -->
<svg version="1.1" id="Layer_1" xmlns="http://www.w3.org/2000/svg" xmlns:xlink="http://www.w3.org/1999/xlink" x="0px" y="0px"
	 viewBox="412 292.2 80 94.7" enable-background="new 412 292.2 80 94.7" xml:space="preserve">
<path fill="#FFFFFF" d="M451.5,292.3l-39,23.4c-0.3,0.2-0.5,0.5-0.5,0.9v46.1c0,0.4,0.2,0.7,0.5,0.9l39,23.2c0.3,0.2,0.7,0.2,1,0
	l39-23.2c0.3-0.2,0.5-0.5,0.5-0.9v-46.1c0-0.4-0.2-0.7-0.5-0.9l-39-23.4C452.2,292.1,451.8,292.1,451.5,292.3z M489.5,362.3l-37,22
	c-0.3,0.2-0.7,0.2-1,0l-37-22c-0.3-0.2-0.5-0.5-0.5-0.9v-43.7c0-0.4,0.2-0.7,0.5-0.9l37-22.2c0.3-0.2,0.7-0.2,1,0l37,22.2
	c0.3,0.2,0.5,0.5,0.5,0.9v43.7C490,361.8,489.8,362.1,489.5,362.3z"/>
<path fill="#FFFFFF" d="M486.5,318.6l-34-20.4c-0.3-0.2-0.7-0.2-1,0l-34,20.4c-0.3,0.2-0.5,0.5-0.5,0.9v40.2c0,0.4,0.2,0.7,0.5,0.9
	l34,20.2c0.3,0.2,0.7,0.2,1,0l34-20.2c0.3-0.2,0.5-0.5,0.5-0.9v-40.2C487,319.1,486.8,318.8,486.5,318.6z M442.4,356.4H435v-23.6
	h7.3V356.4z M438.7,329.9c-2.3,0-3.8-1.6-3.8-3.7c0-2.1,1.5-3.7,3.9-3.7c2.4,0,3.8,1.6,3.9,3.7C442.6,328.3,441.1,329.9,438.7,329.9
	z M469.2,356.4h-7.3v-13.1c0-3.1-1.1-5.1-3.7-5.1c-2,0-3.2,1.4-3.8,2.7c-0.2,0.5-0.2,1.2-0.2,1.8v13.6h-7.3v-16.1
	c0-3-0.1-5.4-0.2-7.5h6.4l0.4,3.3h0.1c1-1.6,3.3-3.8,7.3-3.8c4.8,0,8.5,3.2,8.5,10.2V356.4z"/>
</svg>
