<?xml version="1.0" encoding="utf-8"?>
<!-- Generator: Adobe Illustrator 18.1.0, SVG Export Plug-In . SVG Version: 6.00 Build 0)  -->
<svg version="1.1" id="Layer_3" xmlns="http://www.w3.org/2000/svg" xmlns:xlink="http://www.w3.org/1999/xlink" x="0px" y="0px"
	 viewBox="388.5 289.6 15 32.9" enable-background="new 388.5 289.6 15 32.9" xml:space="preserve">
<path fill="#FFFFFF" d="M396.9,301.5v-2c0,0,0-1.9-2.2-2.1c-0.1,0-0.2,0-0.4,0c-2.9,0-4.4,0.1-4.4-1.8c0-1,0.8-1.7,1.8-1.9
	c0.1,0,6.3,0.1,6.3,0.1s2.1,0,2.1-2.6v-1.6h-1.4v1.6c0,0,0.1,1.1-0.7,1.1h-6.2c-0.1,0-0.1,0-0.2,0c-1.8,0.1-3.2,1.5-3.2,3.2
	c0,1.7,1.3,3,3,3.2c0.1,0,0.7,0.1,0.9,0h2c0,0,1.1-0.1,1.1,0.7v2c-7,0.4-6.6,6-6.6,6v8.8c0,0-0.4,6.1,7.2,6.1c6.8,0,7.3-4.8,7.4-5.9
	v-9.1C403.4,306.3,402.9,301.8,396.9,301.5z M396.9,302.9c4.4,0.4,4.8,4,4.9,5h-4.9V302.9z M395.4,302.9v5h-4.9
	C390.5,307,390.8,303.2,395.4,302.9z M401.8,315.7C401.8,315.7,401.8,315.7,401.8,315.7c0,0.7-0.2,5.3-5.7,5.3
	c-5.9,0-5.6-5.3-5.6-5.3v-6.4h11.3L401.8,315.7L401.8,315.7z"/>
</svg>
