<?xml version="1.0" encoding="utf-8"?>
<!-- Generator: Adobe Illustrator 18.1.1, SVG Export Plug-In . SVG Version: 6.00 Build 0)  -->
<svg version="1.1" id="Layer_1" xmlns="http://www.w3.org/2000/svg" xmlns:xlink="http://www.w3.org/1999/xlink" x="0px" y="0px"
	 viewBox="54 54 288 288" enable-background="new 54 54 288 288" xml:space="preserve">
<circle fill="#BC2F2D" cx="198" cy="198" r="144"/>
<g>
	<path opacity="0.9" fill="none" stroke="#F4F1EF" stroke-width="5" stroke-miterlimit="10" enable-background="new    " d="
		M169.5,281.6c-0.1-1.2-0.2-2.1-0.2-3c0.3-35.6,0.5-71.1,0.7-106.7c0-2.7,1-3.6,3.6-3.6c10.8,0.1,21.6,0.1,32.4,0
		c2.6,0,3.6,0.8,3.4,3.4c-0.2,2.5,0,5.1,0,8.4c1.7-1,2.7-1.5,3.7-2.1c8.6-5.7,17.7-10.6,28.1-12c9.7-1.3,19.4-0.9,28.5,3
		c12.6,5.4,19,15.4,20.9,28.5c0.5,3.3,0.7,6.8,0.7,10.1c-0.1,23.7-0.4,47.3-0.6,71c0,0.9-0.1,1.8-0.2,2.9c-1.3,0.1-2.4,0.3-3.6,0.3
		c-10.5,0-21,0-31.5,0c-4,0-4-0.1-4-4c0.2-17.2,0.4-34.4,0.4-51.5c0-5.8-0.4-11.6-1.1-17.3c-1-8.8-5.7-13-14.5-13.8
		c-8.5-0.7-16.4,1-24.1,4.8c-2.3,1.1-3.1,2.5-3.1,5.1c-0.1,24.1-0.3,48.1-0.5,72.2c0,1.3,0,2.6,0,4.2
		C195.4,281.6,182.6,281.6,169.5,281.6z"/>
	<path opacity="0.9" fill="none" stroke="#F4F1EF" stroke-width="5" stroke-miterlimit="10" enable-background="new    " d="
		M144.3,281.6c-13,0-25.8,0-39.1,0c0-1.4,0-2.6,0-3.8c0.3-34.8,0.5-69.7,0.8-104.5c0-4.9,0.1-5,4.9-5c10.3,0,20.6,0.1,30.8-0.1
		c2.9,0,3.7,0.9,3.7,3.8c-0.4,35.4-0.7,70.9-1,106.3C144.4,279.4,144.3,280.4,144.3,281.6z"/>
	<path opacity="0.9" fill="none" stroke="#F4F1EF" stroke-width="5" stroke-miterlimit="10" enable-background="new    " d="
		M147.5,135.7c-0.1,11.9-9.8,21.4-21.7,21.2c-11.6-0.2-21.3-10-21.1-21.6c0.2-11.9,9.8-21.2,21.8-21.2
		C138.2,114.2,147.6,123.8,147.5,135.7z"/>
</g>
</svg>
