<?xml version="1.0" encoding="utf-8"?>
<!-- Generator: Adobe Illustrator 18.1.0, SVG Export Plug-In . SVG Version: 6.00 Build 0)  -->
<svg version="1.1" id="Layer_1" xmlns="http://www.w3.org/2000/svg" xmlns:xlink="http://www.w3.org/1999/xlink" x="0px" y="0px"
	 viewBox="-289 381 32 32" enable-background="new -289 381 32 32" xml:space="preserve">
<path fill="#FFFFFF" d="M-273,380.8c-8.8,0-16,7.2-16,16s7.2,16,16,16s16-7.2,16-16S-264.2,380.8-273,380.8z M-273,409.8
	c-7.2,0-13-5.8-13-13s5.8-13,13-13s13,5.8,13,13S-265.8,409.8-273,409.8z"/>
<path fill="#FFFFFF" d="M-264.7,388.5l-6.2,10.4l-4.2-4.2C-275.1,394.7-264.7,388.5-264.7,388.5z"/>
<path fill="#E4E7E7" d="M-281.3,405.1l10.4-6.2l-4.2-4.2C-275.1,394.7-281.3,405.1-281.3,405.1z"/>
</svg>
