<?xml version="1.0" encoding="utf-8"?>
<!-- Generator: Adobe Illustrator 18.1.0, SVG Export Plug-In . SVG Version: 6.00 Build 0)  -->
<svg version="1.1" id="Layer_1" xmlns="http://www.w3.org/2000/svg" xmlns:xlink="http://www.w3.org/1999/xlink" x="0px" y="0px"
	 viewBox="359 253.2 80 94.7" enable-background="new 359 253.2 80 94.7" xml:space="preserve">
<path fill="#FFFFFF" d="M398.5,253.3l-39,23.4c-0.3,0.2-0.5,0.5-0.5,0.9v46.1c0,0.4,0.2,0.7,0.5,0.9l39,23.2c0.3,0.2,0.7,0.2,1,0
	l39-23.2c0.3-0.2,0.5-0.5,0.5-0.9v-46.1c0-0.4-0.2-0.7-0.5-0.9l-39-23.4C399.2,253.1,398.8,253.1,398.5,253.3z M436.5,323.3l-37,22
	c-0.3,0.2-0.7,0.2-1,0l-37-22c-0.3-0.2-0.5-0.5-0.5-0.9v-43.7c0-0.4,0.2-0.7,0.5-0.9l37-22.2c0.3-0.2,0.7-0.2,1,0l37,22.2
	c0.3,0.2,0.5,0.5,0.5,0.9v43.7C437,322.8,436.8,323.1,436.5,323.3z"/>
<g>
	<path fill="#FFFFFF" d="M414.1,296.8c-5.1,0-5.8,5.3-5.8,5.3h10.8C419.1,302,419.1,296.8,414.1,296.8z"/>
	<path fill="#FFFFFF" d="M392,292.7c0-3.6-2.3-3.6-2.3-3.6h-9.6v7.6h9C390.6,296.8,392,296.2,392,292.7z"/>
	<path fill="#FFFFFF" d="M433.5,279.6l-34-20.4c-0.3-0.2-0.7-0.2-1,0l-34,20.4c-0.3,0.2-0.5,0.5-0.5,0.9v40.2c0,0.4,0.2,0.7,0.5,0.9
		l34,20.2c0.3,0.2,0.7,0.2,1,0l34-20.2c0.3-0.2,0.5-0.5,0.5-0.9v-40.2C434,280.1,433.8,279.8,433.5,279.6z M406.9,285.1h13.5v4.2
		h-13.5V285.1z M400.1,307.1c0,10.4-10.4,10.1-10.4,10.1h-17.1v-34.2h17.1c5.2,0,9.3,3,9.3,9.1c0,6.1-5,6.5-5,6.5
		C400.5,298.7,400.1,307.1,400.1,307.1z M425.3,306.6h-17c0,6.3,5.8,5.9,5.8,5.9c5.5,0,5.3-3.7,5.3-3.7h5.8c0,9.8-11.2,9.1-11.2,9.1
		c-13.4,0-12.6-13.1-12.6-13.1s0-13.1,12.6-13.1C427.2,291.8,425.3,306.6,425.3,306.6z"/>
	<path fill="#FFFFFF" d="M389.7,302h-9.6v9.1h9.1c1.4,0,3.9-0.4,3.9-4.4C393.1,302,389.7,302,389.7,302z"/>
</g>
</svg>
