<?xml version="1.0" encoding="utf-8"?>
<!-- Generator: Adobe Illustrator 18.1.0, SVG Export Plug-In . SVG Version: 6.00 Build 0)  -->
<svg version="1.1" id="Layer_3" xmlns="http://www.w3.org/2000/svg" xmlns:xlink="http://www.w3.org/1999/xlink" x="0px" y="0px"
	 viewBox="388.5 294.6 15 22.7" enable-background="new 388.5 294.6 15 22.7" xml:space="preserve">
<path fill="#FFFFFF" d="M393.2,295c-0.2-0.3-0.5-0.4-0.8-0.2l-3.5,2.1c-0.3,0.2-0.4,0.5-0.2,0.8l10.5,17.5l3.8,2l0.3,0.1
	c0.2,0.1,0.3-0.1,0.3-0.2v-0.3v-4.4L393.2,295z M400,314.6l2.5-1.5v2.8L400,314.6z M391.2,300.2l1-0.5l8.1,13.5l-1,0.5L391.2,300.2z
	 M393.5,297.7l-2.8,1.7l-1.1-1.9l2.8-1.7L393.5,297.7z M402.2,312.1l-1,0.5l-8.1-13.5l1-0.5L402.2,312.1z"/>
</svg>
