<?xml version="1.0" encoding="utf-8"?>
<!-- Generator: Adobe Illustrator 18.1.0, SVG Export Plug-In . SVG Version: 6.00 Build 0)  -->
<svg version="1.1" id="Layer_3" xmlns="http://www.w3.org/2000/svg" xmlns:xlink="http://www.w3.org/1999/xlink" x="0px" y="0px"
	 viewBox="388.5 294.9 15 22.2" enable-background="new 388.5 294.9 15 22.2" xml:space="preserve">
<path fill="#FFFFFF" d="M403.5,302.2c0-4-3.4-7.3-7.5-7.3s-7.5,3.3-7.5,7.3c0,2.6,1.4,4.9,3.5,6.2v2.3h-0.5v1.5h1.1v3.4l0.7,0.7
	l1.1,0.7h3.2l1.1-0.7l0.7-0.8v-3.4h1.1v-1.5h-0.4v-2.3C402.1,307.1,403.5,304.8,403.5,302.2z M396.5,310.7h-1v-4h1V310.7z
	 M397.5,305.1c0-0.3,0.2-0.6,0.6-0.6c0.3,0,0.6,0.2,0.6,0.6c0,0.3-0.2,0.6-0.6,0.6S397.5,305.4,397.5,305.1z M399.4,307.5
	c-0.2,0.1-0.4,0.2-0.5,0.3v2.9h-1.1v-4c0.1,0.1,0.2,0.1,0.4,0.1c0.9,0,1.7-0.8,1.7-1.7c0-0.9-0.7-1.7-1.7-1.7
	c-0.9,0-1.7,0.8-1.7,1.7c0,0.1,0,0.3,0.1,0.4h-1.1c0.1-0.1,0.1-0.2,0.1-0.4c0-0.9-0.7-1.7-1.7-1.7c-0.9,0-1.7,0.8-1.7,1.7
	c0,0.9,0.7,1.7,1.7,1.7c0.2,0,0.3,0,0.5-0.1v4h-1v-2.9c-0.2-0.1-0.4-0.2-0.6-0.3c-1.8-1.1-3-3.1-3-5.2c0-3.4,2.8-6.2,6.4-6.2
	c3.5,0,6.4,2.8,6.4,6.2C402.4,304.4,401.2,306.4,399.4,307.5z M394.4,305c0,0.3-0.2,0.6-0.6,0.6c-0.3,0-0.6-0.2-0.6-0.6
	c0-0.3,0.2-0.6,0.6-0.6C394.1,304.4,394.4,304.7,394.4,305z"/>
</svg>
