<?xml version="1.0" encoding="utf-8"?>
<!-- Generator: Adobe Illustrator 18.1.0, SVG Export Plug-In . SVG Version: 6.00 Build 0)  -->
<svg version="1.1" id="Layer_1" xmlns="http://www.w3.org/2000/svg" xmlns:xlink="http://www.w3.org/1999/xlink" x="0px" y="0px"
	 viewBox="408 251.3 80 95" enable-background="new 408 251.3 80 95" xml:space="preserve">
<path fill="#FFFFFF" d="M447.5,251.6l-39,23.4c-0.3,0.2-0.5,0.5-0.5,0.9v46.1c0,0.4,0.2,0.7,0.5,0.9l39,23.2c0.3,0.2,0.7,0.2,1,0
	l39-23.2c0.3-0.2,0.5-0.5,0.5-0.9v-46.1c0-0.4-0.2-0.7-0.5-0.9l-39-23.4C448.2,251.4,447.8,251.4,447.5,251.6z M485.5,321.6l-37,22
	c-0.3,0.2-0.7,0.2-1,0l-37-22c-0.3-0.2-0.5-0.5-0.5-0.9V277c0-0.4,0.2-0.7,0.5-0.9l37-22.2c0.3-0.2,0.7-0.2,1,0l37,22.2
	c0.3,0.2,0.5,0.5,0.5,0.9v43.7C486,321.1,485.8,321.4,485.5,321.6z"/>
<g>
	<polygon fill="#FFFFFF" points="471.9,312.2 471.9,285.1 457.1,298.8 	"/>
	<polygon fill="#FFFFFF" points="470.3,283.9 425.6,283.9 448,304.4 	"/>
	<polygon fill="#FFFFFF" points="448,307.1 440.2,300 440.1,300.1 425.4,313.6 470.5,313.6 455.6,300.1 	"/>
	<polygon fill="#FFFFFF" points="423.9,285.1 423.9,312.2 438.7,298.7 	"/>
	<path fill="#FFFFFF" d="M482.5,277.9l-34-20.4c-0.3-0.2-0.7-0.2-1,0l-34,20.4c-0.3,0.2-0.5,0.5-0.5,0.9v40.2c0,0.4,0.2,0.7,0.5,0.9
		l34,20.2c0.3,0.2,0.7,0.2,1,0l34-20.2c0.3-0.2,0.5-0.5,0.5-0.9v-40.2C483,278.4,482.8,278.1,482.5,277.9z M474,315.7H422v-33.8H474
		V315.7z"/>
</g>
</svg>
