<?xml version="1.0" encoding="utf-8"?>
<!-- Generator: Adobe Illustrator 18.1.0, SVG Export Plug-In . SVG Version: 6.00 Build 0)  -->
<svg version="1.1" id="Layer_1" xmlns="http://www.w3.org/2000/svg" xmlns:xlink="http://www.w3.org/1999/xlink" x="0px" y="0px"
	 viewBox="0 0 15 15" enable-background="new 0 0 15 15" xml:space="preserve">
<path opacity="0.9" fill="#FFFFFF" enable-background="new    " d="M13.8,3.7c-0.2-0.1-6-3.5-6-3.5S7.6,0,7.5,0
	C7.4,0,7.2,0.1,7.2,0.1L1.4,3.6c0,0-0.3,0.1-0.3,0.4v7.2c0,0,0,0.1,0.2,0.3s6,3.5,6,3.5s0.1,0.1,0.3,0s6-3.6,6-3.6s0.2-0.1,0.2-0.3
	s0-7.1,0-7.1S14,3.8,13.8,3.7z M5.5,11.4c-0.6,0-1.1,0-1.7,0c0-1.7,0-3.5,0-5.2c0.6,0,1.1,0,1.7,0C5.5,7.9,5.5,9.6,5.5,11.4z
	 M5.5,4.9C5.4,5.2,5.2,5.3,5,5.4C4.8,5.4,4.7,5.4,4.5,5.4c-0.1,0-0.2,0-0.4-0.1C3.9,5.2,3.7,4.9,3.7,4.6c0-0.2,0-0.4,0.1-0.6
	C3.9,3.9,4,3.7,4.3,3.7c0.2-0.1,0.2-0.1,0.3-0.1c0.1,0,0.3,0,0.4,0.1c0.3,0.1,0.4,0.3,0.5,0.6C5.6,4.6,5.6,4.7,5.5,4.9z M11.3,11.3
	L11.3,11.3c-0.6,0-1.1,0-1.7,0c0,0,0,0,0,0v0c0-0.9,0-1.9,0-2.8c0-0.2,0-0.3,0-0.4c0-0.1-0.1-0.2-0.1-0.3C9.4,7.6,9.2,7.4,9,7.4
	c-0.2,0-0.3,0-0.5,0.1S8.2,7.7,8.1,7.8C8,7.9,7.9,8.1,7.9,8.2c0,0.1,0,0.2,0,0.2c0,1,0,1.9,0,2.9v0c-0.6,0-1.1,0-1.6,0
	c0-1.7,0-3.5,0-5.2c0.6,0,1.2,0,1.7,0c0,0.2,0,0.5,0,0.7c0,0,0,0,0,0c0.1-0.1,0.2-0.2,0.3-0.4c0.2-0.2,0.5-0.3,0.8-0.4
	C9.3,6,9.5,6,9.7,6s0.4,0.1,0.6,0.2c0.3,0.2,0.6,0.4,0.8,0.8c0.1,0.2,0.2,0.4,0.2,0.7c0,0.2,0.1,0.5,0.1,0.7
	C11.3,9.3,11.3,10.3,11.3,11.3z"/>
</svg>
