<?xml version="1.0" encoding="utf-8"?>
<!-- Generator: Adobe Illustrator 18.1.1, SVG Export Plug-In . SVG Version: 6.00 Build 0)  -->
<svg version="1.1" id="Layer_1" xmlns="http://www.w3.org/2000/svg" xmlns:xlink="http://www.w3.org/1999/xlink" x="0px" y="0px"
	 viewBox="54 54 180 180" enable-background="new 54 54 180 180" xml:space="preserve">
<g>
	<path fill="none" stroke="#F4F1EF" stroke-width="3" stroke-miterlimit="10" d="M79.3,183.1c0-26.8,0-53.5,0-80.2
		c0.3,0,0.6-0.1,0.8-0.1c13.2,0,26.4-0.1,39.6,0.1c5.4,0.1,10.6,1.2,15.1,4.5c6.1,4.5,8,10.8,7.7,18c-0.4,6.6-3.4,11.5-9.3,14.4
		c2.1,1.4,4.3,2.5,6,4.1c4.9,4.4,6.3,10.3,5.8,16.5c-1,12.9-9.5,21.1-22.6,22.3c-2.8,0.2-5.5,0.4-8.3,0.4c-11,0-21.9,0-32.9,0
		C80.6,183.1,80,183.1,79.3,183.1z M95.4,168.9c7.8,0,15.4,0.3,23-0.1c5.4-0.2,8.4-3.2,9.4-8c1.3-6.4-1.3-11-7.2-12.4
		c-1.1-0.3-2.3-0.4-3.4-0.5c-7-0.1-14-0.1-21-0.1c-0.3,0-0.6,0.1-0.9,0.1C95.4,155,95.4,161.9,95.4,168.9z M95.4,134.5
		c6.3,0,12.5,0,18.6,0c1.5,0,3-0.1,4.5-0.3c6.4-1.1,9-4.8,7.4-11.8c-0.5-2.3-2.2-3.8-4.5-4.4c-2-0.5-4.1-0.9-6.2-1
		c-6.4-0.1-12.7-0.1-19.1-0.1c-0.3,0-0.6,0.1-0.9,0.1C95.4,122.8,95.4,128.6,95.4,134.5z"/>
	<path fill="none" stroke="#F4F1EF" stroke-width="3" stroke-miterlimit="10" d="M208.7,157.8c-14.8,0-29,0-43.3,0
		c-0.6,7.6,5,14,12.6,14.6c3.2,0.2,6.5,0.1,9.2-1.8c1.5-1.1,2.7-2.7,4-4.1c0.4-0.4,0.9-0.9,1.3-0.9c5-0.1,9.9,0,15.4,0
		c-0.7,1.9-1.1,3.7-2,5.2c-3,5.4-7.2,9.7-13.1,11.8c-10.5,3.8-20.8,3.4-30.6-2.3c-6.1-3.6-10-8.8-11.5-15.7
		c-1.9-8.3-1.9-16.6,1-24.7c3.6-10,11.1-15.7,21.4-17.4c6.2-1,12.3-0.6,18.2,1.7c9.6,3.8,14.6,11.3,16.4,21.1
		C208.5,149.4,208.4,153.5,208.7,157.8z M192.1,147.4c0-7.8-6.1-12.7-14.7-12.3c-7.7,0.4-11.6,7.4-11.5,12.3
		C174.7,147.4,183.3,147.4,192.1,147.4z"/>
	<path fill="none" stroke="#F4F1EF" stroke-width="3" stroke-miterlimit="10" d="M160.6,107.5c11.6,0,23.1,0,34.7,0c0,2.7,0,5.3,0,8
		c-11.6,0-23.1,0-34.7,0C160.6,112.8,160.6,110.2,160.6,107.5z"/>
</g>
</svg>
