<?xml version="1.0" encoding="utf-8"?>
<!-- Generator: Adobe Illustrator 18.1.1, SVG Export Plug-In . SVG Version: 6.00 Build 0)  -->
<svg version="1.1" id="Layer_1" xmlns="http://www.w3.org/2000/svg" xmlns:xlink="http://www.w3.org/1999/xlink" x="0px" y="0px"
	 viewBox="54 54 288 288" enable-background="new 54 54 288 288" xml:space="preserve">
<circle fill="#FED408" cx="198" cy="198" r="144"/>
<g>
	<path fill="none" stroke="#F4F1EF" stroke-width="4" stroke-miterlimit="10" d="M94.5,260.6c0-42.9,0-85.6,0-128.3
		c0.5,0,1-0.2,1.3-0.2c21.1,0,42.2-0.2,63.4,0.2c8.6,0.2,17,1.9,24.2,7.2c9.8,7.2,12.8,17.3,12.3,28.8c-0.6,10.6-5.4,18.4-14.9,23
		c3.4,2.2,6.9,4,9.6,6.6c7.8,7,10.1,16.5,9.3,26.4c-1.6,20.6-15.2,33.8-36.2,35.7c-4.5,0.3-8.8,0.6-13.3,0.6c-17.6,0-35,0-52.6,0
		C96.6,260.6,95.6,260.6,94.5,260.6z M120.2,237.8c12.5,0,24.6,0.5,36.8-0.2c8.6-0.3,13.4-5.1,15-12.8c2.1-10.2-2.1-17.6-11.5-19.8
		c-1.8-0.5-3.7-0.6-5.4-0.8c-11.2-0.2-22.4-0.2-33.6-0.2c-0.5,0-1,0.2-1.4,0.2C120.2,215.6,120.2,226.6,120.2,237.8z M120.2,182.8
		c10.1,0,20,0,29.8,0c2.4,0,4.8-0.2,7.2-0.5c10.2-1.8,14.4-7.7,11.8-18.9c-0.8-3.7-3.5-6.1-7.2-7c-3.2-0.8-6.6-1.4-9.9-1.6
		c-10.2-0.2-20.3-0.2-30.6-0.2c-0.5,0-1,0.2-1.4,0.2C120.2,164.1,120.2,173.4,120.2,182.8z"/>
	<path fill="none" stroke="#F4F1EF" stroke-width="4" stroke-miterlimit="10" d="M301.5,220.1c-23.7,0-46.4,0-69.3,0
		c-1,12.2,8,22.4,20.2,23.4c5.1,0.3,10.4,0.2,14.7-2.9c2.4-1.8,4.3-4.3,6.4-6.6c0.6-0.6,1.4-1.4,2.1-1.4c8-0.2,15.8,0,24.6,0
		c-1.1,3-1.8,5.9-3.2,8.3c-4.8,8.6-11.5,15.5-21,18.9c-16.8,6.1-33.3,5.4-49-3.7c-9.8-5.8-16-14.1-18.4-25.1
		c-3-13.3-3-26.6,1.6-39.5c5.8-16,17.8-25.1,34.2-27.8c9.9-1.6,19.7-1,29.1,2.7c15.4,6.1,23.4,18.1,26.2,33.8
		C301.2,206.6,301,213.2,301.5,220.1z M275,203.4c0-12.5-9.8-20.3-23.5-19.7c-12.3,0.6-18.6,11.8-18.4,19.7
		C247.1,203.4,260.9,203.4,275,203.4z"/>
	<path fill="none" stroke="#F4F1EF" stroke-width="4" stroke-miterlimit="10" d="M224.6,139.6c18.6,0,37,0,55.5,0
		c0,4.3,0,8.5,0,12.8c-18.6,0-37,0-55.5,0C224.6,148.1,224.6,143.9,224.6,139.6z"/>
</g>
</svg>
