<?xml version="1.0" encoding="utf-8"?>
<!-- Generator: Adobe Illustrator 18.1.0, SVG Export Plug-In . SVG Version: 6.00 Build 0)  -->
<svg version="1.1" id="Layer_1" xmlns="http://www.w3.org/2000/svg" xmlns:xlink="http://www.w3.org/1999/xlink" x="0px" y="0px"
	 viewBox="0 0 15 15" enable-background="new 0 0 15 15" xml:space="preserve">
<g>
	<path opacity="0.9" fill="#FFFFFF" enable-background="new    " d="M5.7,7.8c-0.4,0-0.9,0-1.3,0c0,0-0.1,0-0.1,0
		C4.3,8.2,4.3,8.7,4.3,9.2c0.6,0,1,0,1.6,0c0.3,0,0.6-0.2,0.7-0.5C6.6,8.3,6.3,7.8,5.7,7.8z"/>
	<path opacity="0.9" fill="#FFFFFF" enable-background="new    " d="M5.6,6.9c0.4,0,0.7-0.3,0.7-0.6C6.3,6,6,5.7,5.6,5.7
		c-0.3,0-0.6,0-1,0c-0.1,0-0.2,0-0.3,0c0,0.4,0,0.7,0,1.1c0,0,0,0.1,0,0.1c0,0,0,0,0,0C4.7,6.9,5.1,6.9,5.6,6.9z"/>
	<path opacity="0.9" fill="#FFFFFF" enable-background="new    " d="M10,6.9c-0.5,0-0.9,0.4-0.9,0.9c0.6,0,1.2,0,1.8,0
		C10.9,7.3,10.4,6.9,10,6.9z"/>
	<path opacity="0.9" fill="#FFFFFF" enable-background="new    " d="M13.8,3.7c-0.2-0.1-6-3.5-6-3.5S7.6,0,7.5,0
		C7.4,0,7.2,0.1,7.2,0.1L1.4,3.6c0,0-0.3,0.1-0.3,0.4v7.2c0,0,0,0.1,0.2,0.3s6,3.5,6,3.5s0.1,0.1,0.3,0s6-3.6,6-3.6s0.2-0.1,0.2-0.3
		s0-7.1,0-7.1S14,3.8,13.8,3.7z M8.7,5.2c0.8,0,1.6,0,2.4,0c0,0.2,0,0.3,0,0.5c-0.8,0-1.6,0-2.4,0C8.7,5.5,8.7,5.3,8.7,5.2z
		 M7.2,9.7C6.9,9.9,6.5,10.1,6,10.1c-1,0-1.9,0-2.9,0c-0.1,0-0.1,0-0.1,0c0-1.8,0-3.5,0-5.3c0.1,0,0.1,0,0.2,0c0.9,0,1.8,0,2.8,0
		c0.3,0,0.7,0.1,1,0.3c0.7,0.5,0.7,1.5,0,2c-0.1,0-0.1,0.1-0.2,0.1c0.1,0,0.2,0.1,0.3,0.1C8.1,7.8,8,9.3,7.2,9.7z M12,8.4
		C12,8.4,12,8.4,12,8.4C11,8.4,10,8.4,9,8.4c0,0.7,0.7,1.2,1.4,0.9c0.1-0.1,0.3-0.2,0.4-0.3C10.9,9,11,8.9,11.1,8.9
		c0.3,0,0.6,0,0.9,0c-0.1,0.4-0.3,0.7-0.6,0.9c-0.6,0.5-2.2,0.6-2.9-0.2C7.9,9,7.7,7.8,8.2,7.1C8.7,6.3,9.7,6,10.6,6.3
		C11.5,6.6,12.1,7.4,12,8.4z"/>
</g>
</svg>
