<?xml version="1.0" encoding="utf-8"?>
<!-- Generator: Adobe Illustrator 18.1.1, SVG Export Plug-In . SVG Version: 6.00 Build 0)  -->
<svg version="1.1" id="Layer_1" xmlns="http://www.w3.org/2000/svg" xmlns:xlink="http://www.w3.org/1999/xlink" x="0px" y="0px"
	 viewBox="0 0 468 144" enable-background="new 0 0 468 144" xml:space="preserve">
<g>
	<g>
		<g>
			<path fill="#F4F1EF" d="M97.6,90.7c0,0.9-0.1,1.9-0.1,2.7c0.1,0.9,0,1.9,0.2,2.8c0.4,3.5,1.7,6.9,3.5,9.8
				c1.8,2.9,4.1,5.3,6.6,7.2c2.5,1.9,5.3,3.2,8.1,4.1c2.8,0.8,5.5,1.2,8.1,1.3c5.2,0.1,9.7-1.1,13.1-2.6c3.4-1.6,5.8-3.4,7.3-4.7
				c0.4-0.3,0.7-0.7,1-0.9c0.2-0.3,0.6-0.4,0.9-0.4c0.3,0,0.5,0.1,0.6,0.2c0.1,0.1,0.2,0.1,0.2,0.1l0,0c0,0,0.3,0.2,0.2,0.8
				c0,0.3-0.3,0.6-0.6,0.8c-0.3,0.2-0.6,0.5-1,0.8c-1.6,1.2-3.9,3.1-7.3,4.8c-3.4,1.6-7.9,3-13.2,3.2c-0.3,0-0.7,0-1,0.1
				c-0.4,0-0.7,0-1,0c-0.7,0-1.4,0-2.1-0.1c-0.7,0-1.4-0.2-2.1-0.2c-0.4,0-0.7-0.1-1.1-0.1c-0.4-0.1-0.7-0.2-1.1-0.2
				c-2.9-0.6-5.9-1.6-8.8-3.3c-2.8-1.7-5.5-3.9-7.8-6.6c-2.2-2.8-4-6.1-4.9-9.8c-1-3.7-1.1-7.6-0.4-11.5c0.7-3.9,2.3-7.7,4.7-11
				c2.4-3.3,5.7-6.1,9.3-8.1c3.7-2,7.8-3.2,12.1-3.6c1.1-0.1,2.1-0.1,3.2-0.2c1.1,0,2.1,0,3.2,0.1c2.1,0.1,4.3,0.4,6.4,1
				c2.1,0.5,4.2,1.3,6.1,2.3c1.9,1,3.7,2.2,5.5,3.5c0.4,0.3,0.8,0.6,1.3,1c0.2,0.2,0.4,0.3,0.7,0.5c0.3,0.2,0.5,0.7,0.4,1
				c0,0.4-0.2,0.8-0.5,1c-0.3,0.2-0.7,0.3-1.1,0.2c-0.2,0-0.4-0.1-0.5-0.2c-0.1-0.1-0.2-0.2-0.3-0.3l-0.6-0.6
				c-0.2-0.2-0.3-0.3-0.6-0.5l-0.6-0.5l-0.3-0.2l-0.3-0.2l-0.7-0.4l-1.3-0.9l-0.3-0.2l-0.1-0.1c0,0,0,0-0.1,0l-0.2-0.1l-0.7-0.4
				c-3.7-2.1-7.8-3.2-12-3.5c-1.1-0.1-2.1-0.1-3.1-0.1c-1,0-2.1,0.1-3.1,0.1c-1,0.2-2,0.3-3,0.5l-1.5,0.4c-0.5,0.1-1,0.2-1.5,0.4
				c-3.9,1.3-7.4,3.4-10.2,6.1c-2.8,2.8-4.9,6.1-6.2,9.6c-0.2,0.4-0.3,0.9-0.4,1.3L98.1,88C97.9,88.9,97.8,89.8,97.6,90.7z"/>
		</g>
		<g>
			<path fill="#F4F1EF" d="M298.5,68.8C298.5,68.8,298.4,68.7,298.5,68.8C298.4,68.8,298.5,68.8,298.5,68.8L298.5,68.8
				C298.5,68.8,298.5,68.8,298.5,68.8z M299.3,68.8C299.3,68.8,299.3,68.8,299.3,68.8L299.3,68.8L299.3,68.8
				C299.4,68.8,299.4,68.7,299.3,68.8C299.3,68.7,299.3,68.8,299.3,68.8z M299.3,66c0,0,0,0.1,0,0.1l0,0L299.3,66z M298.5,66.2
				C298.5,66.2,298.5,66.1,298.5,66.2L298.5,66.2c0.1-0.1,0.1-0.1,0.1-0.2L298.5,66.2z"/>
			<g>
				<path fill="#F4F1EF" d="M317.7,103.5c0,0-0.1,0-0.1-0.1L317.7,103.5L317.7,103.5L317.7,103.5
					C317.7,103.5,317.7,103.5,317.7,103.5z M297.8,65.7C297.8,65.7,297.8,65.7,297.8,65.7L297.8,65.7
					C297.8,65.6,297.8,65.7,297.8,65.7z M280.3,103.8c-0.1,0-0.2,0.1-0.2,0.1L280.3,103.8l0.2-0.1l0-0.1
					C280.5,103.7,280.4,103.7,280.3,103.8z"/>
				<path fill="#F4F1EF" d="M299,68.3c0-0.1-0.2-0.1-0.2,0l-0.3,0.5c0.1,0.1,0.1,0.1,0.2,0.1c0.2,0.1,0.4,0,0.5-0.1L299,68.3z"/>
				<path fill="#F4F1EF" d="M328.1,118.6L328.1,118.6c-2.4-4.4-4.7-8.8-6.9-13.3l-6.8-13.3l-3.5-6.6c-1.1-2.2-2.3-4.4-3.5-6.6
					l-3.6-6.6l-3.6-6.5v0c0,0,0,0,0,0c0,0,0,0,0-0.1c-0.1-0.2-0.3-0.4-0.4-0.5c-0.1-0.1-0.2-0.1-0.3-0.2c-0.1,0-0.1,0-0.2,0
					c-0.1,0-0.1,0-0.2,0c0,0-0.1,0-0.2,0c-0.1,0-0.1,0-0.2,0c-0.1,0-0.2,0.1-0.3,0.2c-0.2,0.1-0.3,0.3-0.4,0.5c0,0,0-0.1,0.1-0.1
					l-0.1,0.1c0,0,0,0,0,0v0l-3.6,7l-3.7,6.9c-1.2,2.3-2.5,4.6-3.8,6.9c-1.3,2.3-2.5,4.6-3.8,6.9l-7.7,13.8l-3.8,6.9l-1.9,3.4
					l-0.2,0.4c-0.1,0.2-0.2,0.5-0.2,0.7c0,0.6,0.2,1.1,0.8,1.5c0.5,0.3,1.2,0.2,1.6-0.1c0.2-0.1,0.4-0.4,0.5-0.6l0.3-0.4l0,0l0,0
					l4.6-8.4l2.3-4.2l1.1-2.1l0.3-0.5l0-0.1h-0.3c0,0,0.2,0,0.2-0.1c0.1,0,0.2-0.1,0.2-0.2l0,0.1l-0.1,0.2h0.8l9.6,0
					c3.2,0,6.4,0,9.6,0l9.6-0.1l4.8-0.1l2.4-0.1h0.4l0,0l0,0c0,0,0.1,0.1,0.1,0.1c0,0,0,0,0,0l-0.1,0l0,0.1l0.1,0.3l0.6,1l2.4,4.2
					c0.8,1.4,1.6,2.8,2.3,4.2l2.3,4.2c0.4,0.7,0.6,1.5,1.2,2.1c0.3,0.3,0.8,0.4,1.2,0.2C328.2,119.5,328.4,119,328.1,118.6z
					 M299.4,66.2L299.4,66.2c0-0.1,0-0.1,0-0.2L299.4,66.2z M298.5,66c0,0,0,0.1,0,0.1v0c0,0,0,0,0,0L298.5,66z M298.5,68.8
					C298.5,68.8,298.5,68.8,298.5,68.8l0.3-0.4c0-0.1,0.2-0.1,0.2,0l0.3,0.5c0,0,0,0,0,0c0,0,0-0.1,0.1-0.1c0,0,0,0,0,0l0,0.1l0,0
					c-0.1,0.1-0.4,0.2-0.5,0.1C298.7,68.9,298.6,68.9,298.5,68.8L298.5,68.8C298.5,68.8,298.4,68.8,298.5,68.8
					C298.4,68.7,298.5,68.8,298.5,68.8z M316.7,101.5c0,0-0.4,0-1.3,0c-0.8,0-2,0-3.5,0c-1.5,0-3.4-0.1-5.5-0.2
					c-2.1-0.1-4.5-0.2-7.1-0.3c-2.6-0.1-5.5-0.1-8.4-0.1c-3,0-6.1,0.2-9.4,0.2l-0.2,0.3c0-0.1,0-0.2,0-0.2c0,0,0-0.1-0.1-0.1
					c0,0,0,0-0.1,0l0.3,0h0l0.1-0.2l0.5-1.1c0.4-0.7,0.8-1.5,1.1-2.2c0.8-1.5,1.6-3,2.4-4.5c0.8-1.5,1.7-3,2.5-4.5
					c0.9-1.5,1.7-3,2.6-4.5c1.8-3,3.5-6.1,5.2-9c0.8-1.5,1.7-3,2.5-4.5l0.5-1c0.2,0.4,0.4,0.9,0.7,1.3c1.5,2.9,3,5.7,4.5,8.3
					c1.4,2.6,2.8,5.1,4.1,7.4c1.3,2.2,2.6,4.3,3.6,6.2c1.1,1.8,2,3.4,2.8,4.8c0.8,1.3,1.3,2.4,1.7,3.1c0.2,0.3,0.3,0.6,0.4,0.8
					C316.8,101.5,316.7,101.5,316.7,101.5z"/>
			</g>
		</g>
		<g>
			<polygon fill="#F4F1EF" points="449.1,117.9 449,117.9 449,117.9 			"/>
			<path fill="#F4F1EF" d="M449.1,117.8L449.1,117.8L449.1,117.8L449.1,117.8z"/>
			<path fill="#F4F1EF" d="M449.2,117.8L449.2,117.8L449.2,117.8L449.2,117.8L449.2,117.8L449.2,117.8c-3.9,0-7.7-0.1-11.5-0.1
				l-11.5-0.3c-3.8-0.1-7.6-0.1-11.5-0.2l-1.4,0c0,0,0,0,0,0c0,0,0,0,0,0v-0.3l0-2.9l0-5.7c-0.1-7.6-0.3-15.3-0.3-22.9
				c0-3.8,0-7.6,0-11.5c0-1.9,0-3.8,0.1-5.7c0-0.5,0-0.9,0-1.5c0-0.6-0.6-1.2-1.3-1.2c-0.7,0-1.2,0.6-1.3,1.2l0,1.5l-0.2,11.5
				l-0.1,11.5l-0.1,11.5c0,3.8,0,7.6,0,11.5l0,2.9v1.8l0,0.1c0,0.1,0,0.1,0,0.2c0,0.1,0.1,0.2,0.1,0.3c0.2,0.4,0.7,0.7,1.1,0.8h2.9
				l2.9,0c3.8-0.1,7.6-0.1,11.5-0.2l11.5-0.3c1.9-0.1,3.8,0,5.7-0.1l2.9,0c0.2,0,0.5,0,0.7,0c0.2-0.1,0.5-0.3,0.6-0.5
				C450.2,118.4,449.7,117.8,449.2,117.8z M449,117.9L449,117.9L449,117.9L449,117.9z"/>
		</g>
		<g>
			<path fill="#F4F1EF" d="M19.6,67L19.6,67C19.5,66.9,19.5,66.9,19.6,67z"/>
			<path fill="#F4F1EF" d="M46.4,101.2c0,0-0.1,0-0.1,0c0,0-0.1,0-0.1,0c0,0,0,0,0,0c0,0,0,0,0,0l0.1-0.1l0,0L46.4,101.2z"/>
			<path fill="#F4F1EF" d="M71.6,71.1c0,0-0.1,0-0.1,0c-0.1,0-0.3,0-0.3-0.2c0-0.3,0,0.1,0,0.2v0.5l0.1-0.1l0.4-0.4L71.6,71.1
				C71.6,71.1,71.6,71.1,71.6,71.1z"/>
			<path fill="#F4F1EF" d="M74.3,119.2l0-1.1l0-2.3l0-4.5l-0.1-9.1L73.9,84l0-9.1l0-4.6l0-2.3c0-0.4,0-0.8-0.1-1.2
				c-0.1-0.2-0.2-0.4-0.3-0.5c-0.2-0.1-0.4-0.2-0.6-0.2h0c-0.5,0-0.8,0.5-1.1,0.8l-0.8,1l-1.7,2.1l-3.4,4.2l-6.7,8.4l-6.8,8.3
				L49,95.4l-1.7,2.1l-0.8,1l-0.2,0.3l0,0c0,0,0,0,0,0c0,0,0,0.1-0.2-0.2l-6.6-8.5l-6.6-8.5l-6.6-8.4L22.8,69l-1.7-2.1l-0.4-0.5
				c-0.1-0.1-0.1-0.2-0.3-0.3c-0.1-0.1-0.3-0.3-0.6-0.3c-0.2,0-0.3,0-0.5,0c-0.2,0-0.3,0-0.5,0.1c-0.3,0.1-0.6,0.4-0.8,0.8
				c0,0.3-0.1,0.5-0.1,0.8l0,0.6v8l0.1,9.1l0.1,18.2l0.1,9.1l0,4.5l0,2.3c0,0.2,0,0.4,0.1,0.7c0.1,0.2,0.3,0.4,0.5,0.5
				c0.4,0.3,1,0.2,1.4,0c0.2-0.1,0.3-0.3,0.4-0.6c0-0.1,0-0.2,0-0.3v-0.3l0-1.1v-2.3l0-4.6l0-9.1l0.1-18.2l0.1-9.1l0-2.3l0-1.1
				c0-0.1,0-0.4,0-0.5c0,0,0,0,0,0l2.6,3.3l11.2,14.3l5.6,7.2l2.8,3.6l1.4,1.8l0.7,0.9l0.2,0.2c0.1,0.1,0.4,0.3,0.6,0.3
				c0.2,0,0.5,0,0.7-0.1c0.2-0.1,0.4-0.3,0.4-0.4l22.7-28.5l1.3-1.7v-0.5c0-0.1,0-0.5,0-0.2c0.1,0.1,0.2,0.2,0.3,0.2
				c0,0,0.1,0,0.1,0c0,0,0,0,0.1,0l-0.1,0.2l-0.4,0.4l-0.1,0.1v4l0,9.1l0,18.2l0.1,9.1l0,4.5l0,2.3c0,0.2,0,0.3,0,0.7
				c0.1,0.3,0.3,0.6,0.5,0.8c0.5,0.4,1.1,0.5,1.7,0.2c0.3-0.1,0.5-0.4,0.6-0.6c0.1-0.1,0.1-0.3,0.1-0.4c0-0.1,0-0.2,0-0.2
				L74.3,119.2z M19.6,67C19.5,66.9,19.5,66.9,19.6,67L19.6,67z M46.2,101.1c0,0-0.1,0-0.1,0c0,0,0,0,0,0c0,0,0,0,0,0l0.1-0.1l0,0
				l0.1,0.2C46.3,101.2,46.3,101.1,46.2,101.1z"/>
		</g>
		<g>
			<path fill="#F4F1EF" d="M174,100.7c-0.1,2.6-0.2,5-0.3,7.1c-0.1,2.1-0.2,4-0.2,5.5c0,1.5,0,2.7,0,3.5c0,0.8,0,1.2,0,1.2
				s0,0.1,0,0.3c0,0.2,0,0.5,0,0.9c0,0.2,0,0.4-0.2,0.7c-0.1,0.3-0.4,0.4-0.7,0.5c-0.3,0-0.7,0-0.9-0.4c-0.2-0.3-0.3-0.7-0.3-1.1
				c-0.1-0.8,0.1-1.6,0-2.5c0-0.9-0.1-1.9-0.1-3c-0.1-2.1-0.2-4.5-0.3-7.1c-0.1-2.6-0.1-5.4-0.1-8.4c0-3,0-6.1,0-9.4
				c0-3.3,0.1-6.6,0.1-10.1c0-3.4,0.1-6.9,0.2-10.4c0-0.2,0-0.4,0-0.6c0-0.2,0-0.4,0-0.7c0-0.2,0.1-0.5,0.2-0.8
				c0.2-0.3,0.5-0.5,0.8-0.5c0.3,0,0.5,0,0.8,0.1c0.3,0.1,0.5,0.4,0.6,0.6c0.2,0.5,0.1,1,0.1,1.4c0,1.7,0,3.5,0,5.2
				c0,3.4,0,6.8,0.2,10.1c0.1,3.3,0.2,6.4,0.2,9.4C174,95.3,174,98.1,174,100.7z"/>
		</g>
		<g>
			<path fill="#F4F1EF" d="M203.6,66.2C203.6,66.2,203.6,66.2,203.6,66.2L203.6,66.2C203.6,66.2,203.6,66.2,203.6,66.2z"/>
			<path fill="#F4F1EF" d="M204.5,69.6c0,0,0,0.4,0,1.1c-0.1-0.1-0.2-0.2-0.3-0.3c-0.1-0.1-0.1-0.1-0.2-0.2c0,0-0.1-0.1-0.1-0.2
				l-0.1-0.1c0-0.1,0-0.2,0-0.3H204.5z"/>
			<path fill="#F4F1EF" d="M205.2,69.6v0.8c-0.3-0.3-0.7-0.7-0.7-0.8H205.2z"/>
			<path fill="#F4F1EF" d="M249.3,116.5l-0.4,0.2l0-0.6C249.1,116.3,249.2,116.4,249.3,116.5z"/>
			<polygon fill="#F4F1EF" points="249.9,116.3 249.5,116.5 249.5,115.9 			"/>
			<path fill="#F4F1EF" d="M203.8,69.6c0,0.1,0,0.2,0,0.3L204,70c0,0.1,0.1,0.1,0.1,0.2c0.1,0.1,0.1,0.2,0.2,0.2
				c0.1,0.1,0.2,0.2,0.3,0.3c0,0,0.1,0.1,0.1,0.1l0.4,0.3l0.1,0.1l0.1,0.1l0-1v-0.8H203.8z M249.5,115.9l-0.5-0.6l0,0.8l0,0.6
				l0.4-0.2c0,0,0.1,0.1,0.1,0.2v-0.2l0.4-0.2L249.5,115.9z"/>
			<path fill="#F4F1EF" d="M251.8,117.7l0-1.9l0-3.9l-0.2-15.5c0-5.2-0.1-10.3-0.2-15.5l0-7.7l0-5.8c0-0.3,0-0.7-0.1-1
				c-0.2-0.3-0.5-0.5-0.9-0.5c-0.6,0-1,0.6-1,1.2l0,1.6l0,3.2l0,6.4c0,4.3,0,8.5-0.1,12.8l-0.3,24.2l0.5,0.6l0.4,0.5l-0.4,0.2v0.2
				c0,0-0.1-0.1-0.1-0.2l-0.4,0.2l0-0.6l0-0.8l-6.4-7.1c-2.4-2.7-4.9-5.5-7.3-8.1c-4.9-5.4-9.8-10.8-14.8-16.2
				c-2.5-2.7-4.9-5.4-7.3-8.2c-2.4-2.7-4.8-5.5-7.3-8.2c-0.3-0.3-0.6-0.7-1-1c-0.2-0.2-0.3-0.3-0.5-0.5c-0.1-0.1-0.2-0.2-0.3-0.2
				c0,0-0.1-0.1-0.2-0.1c0,0,0,0-0.1-0.1c-0.1,0-0.1,0-0.2,0c-0.7,0-1.2,0.5-1.2,1.1v1.4l0,5.5l0,10.9l-0.1,21.9l-0.1,10.9l0,1.4
				v0.7c0,0.3,0.1,0.6,0.3,0.9c0.4,0.5,1.3,0.5,1.8,0.1c0.2-0.2,0.4-0.5,0.4-0.9c0-0.3,0-0.5,0-0.7l0-5.5l0.2-21.9l0.1-20.1
				l-0.1-0.1l-0.1-0.1l-0.4-0.3c0,0-0.1-0.1-0.1-0.1c-0.1-0.1-0.2-0.2-0.3-0.3c-0.1-0.1-0.1-0.1-0.2-0.2c0,0-0.1-0.1-0.1-0.2
				l-0.1-0.1c0-0.1,0-0.2,0-0.3h1.4v0.8l0,1l0.1,0.1l1.3,1.4l2.6,2.9l5.2,5.8L224.8,93c7,7.6,13.8,15.3,20.9,22.9l1.3,1.4l0,0
				c0,0,0,0,0,0c0,0,0,0.1,0.1,0.1l0.1,0.2l0.3,0.4l0.6,0.8c0.4,0.5,0.8,1.1,1.3,1.6c0.1,0.1,0.3,0.3,0.5,0.4
				c0.1,0.1,0.3,0.1,0.5,0.1c0,0,0.3,0,0.4-0.1c0.5-0.1,0.9-0.6,1-1.1c0-0.1,0-0.2,0-0.4v-0.7L251.8,117.7z M203.6,66.2L203.6,66.2
				C203.6,66.2,203.6,66.2,203.6,66.2C203.6,66.2,203.6,66.2,203.6,66.2z"/>
		</g>
		<g>
			<path fill="#F4F1EF" d="M391.4,118.7c0,0.4-0.4,0.7-0.8,0.7v0h-0.1v-0.1h0.1c0.3,0,0.7-0.2,0.7-0.6c0-0.1,0-0.2,0-0.2
				c0-0.1-0.1-0.2-0.1-0.2c-0.1-0.1-0.3-0.2-0.5-0.2h-0.1v0l0-0.1v0h0.1v0h0C391,117.9,391.4,118.3,391.4,118.7z"/>
			<path fill="#F4F1EF" d="M390.6,117.9L390.6,117.9L390.6,117.9L390.6,117.9L390.6,117.9L390.6,117.9L390.6,117.9L390.6,117.9
				c0.2,0.1,0.4,0.2,0.5,0.3c0.1,0.1,0.1,0.1,0.1,0.2c0,0.1,0,0.1,0,0.2c0,0.3-0.3,0.6-0.7,0.6h-0.1v0h0.1l-0.1,0.1h0.1v0
				c0.4,0,0.8-0.3,0.8-0.7C391.4,118.3,391,117.9,390.6,117.9z M390.6,119.5c0,0,0.1,0,0.1,0l0-0.1L390.6,119.5z M390.6,117.8
				L390.6,117.8L390.6,117.8L390.6,117.8z"/>
			<path fill="#F4F1EF" d="M391.4,118.3c0-0.1-0.1-0.2-0.2-0.3c-0.1-0.1-0.3-0.2-0.5-0.2v0.1l-0.1-0.1h0.1v0h-0.1
				c-3.8-0.1-7.5-0.2-11.3-0.3l-11.3-0.2l-11.3-0.1l-1.4,0l-0.4,0c-0.1,0,0,0-0.1,0c0,0,0,0,0,0l0-2.7l0-5.7
				c-0.1-7.5-0.3-15.1-0.3-22.6l0-5.7l0-5.7l0-5.7l0-1.4l0-0.7v-0.4c0-0.2,0-0.3-0.1-0.5c-0.2-0.6-0.9-1-1.6-0.8
				c-0.6,0.2-1,0.9-0.9,1.5c-0.1,7.5-0.2,15.1-0.3,22.6l-0.1,11.3c0,3.8,0,7.5,0,11.3l0,5.7v0.7c0,0.1,0,0.3,0.1,0.6
				c0.1,0.2,0.2,0.4,0.4,0.6c0.2,0.2,0.4,0.3,0.6,0.4c0.1,0,0.2,0,0.3,0h0.9l2.8,0l11.3-0.1c7.5-0.1,15.1-0.2,22.6-0.4h0.1v0
				c0,0-0.1,0-0.1,0l0.1-0.1l0,0.1c0.4-0.1,0.8-0.4,0.7-0.8C391.5,118.6,391.4,118.4,391.4,118.3z M390.6,119.4L390.6,119.4l-0.1,0
				v-0.1h0.1c0.3,0,0.7-0.2,0.7-0.6c0-0.1,0-0.2,0-0.2c0-0.1-0.1-0.2-0.1-0.2c-0.1-0.1-0.3-0.2-0.5-0.2h-0.1v0l0-0.1v0h0.1v0h0
				c0.4,0,0.8,0.4,0.8,0.8C391.3,119.1,391,119.4,390.6,119.4z"/>
		</g>
	</g>
	<g>
		<path fill="#F4F1EF" d="M337.1,84.3c-1.2,0-2.3-0.6-3.1-1.4c-1.8-1.8-2.2-4-2.4-6.4c-0.2-2.7-0.5-5.5-0.3-8.2
			c0.2-3.3,1.1-6.4,2.1-9.5c0.1-0.2,1.9-5.4,2.2-6c1-1.9,2-3.7,3-5.6c0.7-1.2,1.3-2.5,2-3.8c0.3-0.6,0.6-1.2,0.9-1.8
			c0.1-0.2,0.1-0.3,0.2-0.3c0.6-1.3,1.1-2.6,1.3-4c0.3-2.2-0.3-4.6-2-6c-1.7-1.3-3.4-1.4-5.5-0.8c-3.9,1.2-17.6,13.3-23.5,18
			c-0.2,0.2-0.6-0.1-0.4-0.3c2.2-4.4,4.9-8.7,7.2-13c0.5-0.9,0.7-2,0.4-3c-0.8-3.7-5.6-4.1-8.8-2.5c-4.7,2.3-16.3,13.1-20.9,16.9
			c-0.7,0.5-1.6-0.2-1.3-1c2-5.2,5.3-10,6.2-15.5c0.4-2.2,0.2-4.7-1.5-6c-0.7-0.6-1.6-0.8-2.4-0.9c-3.5-0.4-6.8,1.8-9.7,3.8
			c-5.6,4-11,8.4-16.4,12.6c-4,3.2-18.7,15.8-23.1,16.6c-5.5,1.1,3.1-11.5,3.8-12.7c1.2-2.2,2.1-4.6,2-7.1c-0.1-2.5-1.5-5-3.9-5.9
			c-1.7-0.6-3.6-0.2-5.3,0.5c-3.8,1.5-20.8,17.5-21.4,17.7c-0.2,0.1,0.1-1,0.1-1.2c1.2-4.8,5.6-8.3,6.9-13.1
			c0.3-1.2,0.4-2.5-0.3-3.5c-0.6-0.8-1.6-1.3-2.6-1.6c-1.3-0.4-2.8-0.4-4.2-0.3c-3.2,0.2-9.6,6.5-12.2,8.5l-8.2,6.3
			c-0.6,0.4-3,2.8-3.6,2.4c-0.9-0.5,0.2-2.1,0.5-2.7c1.2-2.3,2.5-4.5,3.8-6.8c2.1-3.7,6.1-13.3-3.9-13.5
			c-8.2-0.1-42.9,35.6-50.1,32.3c-5-2.3-3.7-7.6-1.3-11.4c1.3-2.2,3.3-2.5,5.6-3.6c3.2-1.5,6.4-3.3,8.7-6c0.5-0.6,0.9-1.3,0.9-2
			c-0.1-0.8-0.8-1.4-1.6-1.8c-3-1.6-6.8-1.2-9.8,0.3c-3,1.5-5.5,4-7.5,6.7c-0.5,0.7-1,1.4-1.5,2.1c-9.2-1.4-18.8-1.4-28,0.1
			c-6.2,1-12.5,3.2-17.5,7.1c-1.8,1.4-3.9,3.1-4.9,5.1c11.1-14.1,35.6-13.4,49.7-11.1c-0.9,1.6-1.5,3.1-1.8,4.9
			c-0.5,3,0.2,6.4,2.4,8.6c2.4,2.2,6,2.7,9.2,2c3.2-0.8,6-2.5,8.7-4.4c10.4-7,20.1-15,30-22.8c2.6-2,5.4-4.2,8.7-4.2
			c0.6,0,1.2,0.1,1.5,0.5c0.4,0.6,0.1,1.4-0.2,2c-3,6.2-6.8,12.1-9.5,18.4c-0.8,2-1.1,3.8-0.1,5.7c0.4,0.8,2.2,3.8,3.5,2.7
			c0.4-0.3,0.8-0.7,1.2-1.1c4.2-3.9,8.5-7.9,12.8-11.7c2.4-2.2,4.9-4.4,7.4-6.5c1.9-1.6,4.4-4.2,7-4.5c1.3-0.1,1,0.8,0.7,1.6
			c-0.5,1.4-1.2,2.7-1.9,3.9c-1.7,3.3-3.8,6.6-4.7,10.3c-0.4,1.6-0.6,3.4-0.2,5c0.3,1.1,1.2,3.6,2.6,3.7c0.5,0,1-0.3,1.4-0.7
			c1.4-1.4,2.4-3.2,3.8-4.5c15.6-15.2,20.9-17.9,21-17.9c2.8-0.9,2.7,2.5,1.8,4.3c-2.7,5.3-10,12.8-5.9,19.1c1.3,2,4.1,3.7,6.6,3.4
			c2.2-0.3,4.3-2,5.9-3.3c10.7-8.3,20.7-17.7,31.7-25.7c2.7-2,5.6-4.4,9-4.9c0.8-0.1,1.6-0.1,2.1,0.9c0.3,0.8,0.2,1.6-0.3,2.3
			c-3.7,5.2-6.8,10.9-9.1,16.9c-1.1,2.7-1.8,6,0.2,8.1c0.5,0.5,1.2,0.9,1.9,0.9c0.9,0,1.7-0.7,2.3-1.4c4.1-4,8.3-7.9,12.6-11.6
			c2.2-1.9,4.3-3.7,6.5-5.5c2-1.7,4-3.5,6.3-4.8c0.1-0.1,0.2-0.1,0.3-0.2c0.4-0.2,0.8-0.4,1.2-0.4c0.4,0,0.9,0.3,1,0.7
			c0.1,0.3-0.1,0.6-0.2,0.9c-1.6,3.5-3.8,6.6-5.7,9.9c-3.1,5.5-3.2,13.5,1.7,13.5c0.6,0,1.2-0.8,1.6-1.1c1.1-1,2-2,3-3
			c3.1-3.2,6.2-6.4,9.5-9.5c3.6-3.4,7.4-6.6,11.6-9.3c0.3-0.2,0.5-0.3,0.8-0.4c0.3-0.1,0.6,0,0.8,0.2c0.2,0.2,0.2,0.4,0.2,0.6
			c0.4,3-2,6.4-3.5,8.7c-1.4,2.1-4.2,8.7-4.4,9.4c-0.5,1.6-1,3.2-1.3,4.8c-0.8,3.2-1.2,6.4-1.5,9.7c-0.3,3.9-0.1,7.9,1.2,11.5
			c1.3,3.6,5.2,8.7,9.5,8.1c1-0.1,2.1-0.5,3-1c1.4-0.9,3.5-3.4,3.5-4.6c-0.6,1.2-1.1,2.2-2.3,3.2C339.9,83.7,338.6,84.3,337.1,84.3z
			 M151.1,31.8c5-1.4,4.6,1.9,4.6,1.9c-3.4,4.7-12.2,7.3-12.2,7.3S146.1,33.2,151.1,31.8z M143.9,41.7c-0.2,0-0.4-0.1-0.7-0.1
			C143.8,41.7,143.9,41.7,143.9,41.7z"/>
		<path fill="#F4F1EF" d="M429.2,35.8c-11.3-2.7-23.8-3.4-34.8,0.9c-6.1,2.4-12,5.7-17.2,9.7c-1.8,1.1-3.9,2.9-6.1,2.8
			c-0.2,0-0.4-0.1-0.6-0.3c-0.1-0.1-0.2-0.3-0.2-0.5c-0.5-1.9,0.4-3.9,1.2-5.6c0.8-1.8,1.9-3.5,2.6-5.3c0.2-0.4,0.2-0.9,0-1.3
			c-0.3-0.6-2.2-1.3-2.9-1.4c-1.5-0.1-2,0.7-3.2,1.5c-2.6-2.4-6.6-1.9-9.8-0.6c-3,1.2-7.1,3.9-8,7.4c-0.1,0.5-0.2,1-0.2,1.5
			c-0.1,1.7,0.6,3.3,2.4,3.9c1.6,0.5,3.4,0.2,5-0.4c3.2-1.2,5.9-3.4,7.9-6.2c-0.4,1.6-0.6,3.2,0.1,4.8c0.7,1.6,2.1,3.1,3.8,3.6
			c2.2,0.6,4.7-0.2,6.7-1.3c0,0,0,0,0,0c0.6-0.4,19.1-13.2,31.8-14.3c13.7-1.2,30.8,2.1,42,11C443.9,40.8,436.7,37.6,429.2,35.8z
			 M366.1,39.5c-0.3,0.6-0.7,1.1-1.1,1.5c-0.6,0.6-1.2,1.2-1.8,1.7c-1.2,1.1-2.4,2.2-3.8,3.1c-0.8,0.6-1.7,1.1-2.7,1.3
			c-0.7,0.2-1.5,0.2-1.9-0.4c-0.4-0.5-0.2-1.3,0-1.9c0.6-1.5,1.7-2.8,2.7-4c1-1.2,2.1-2.3,3.3-3.3c1.1-0.9,2.3-1.9,3.8-2
			c1.1-0.1,2.6,0.1,2.5,1.4C367.1,37.7,366.5,38.9,366.1,39.5z"/>
	</g>
</g>
</svg>
